<?xml version="1.0" standalone="no"?>
<!DOCTYPE svg PUBLIC "-//W3C//DTD SVG 20010904//EN"
 "http://www.w3.org/TR/2001/REC-SVG-20010904/DTD/svg10.dtd">
<svg version="1.0" xmlns="http://www.w3.org/2000/svg"
 width="952.000000pt" height="960.000000pt" viewBox="0 0 952.000000 960.000000"
 preserveAspectRatio="xMidYMid meet">
<metadata>
Created by potrace 1.15, written by Peter Selinger 2001-2017
</metadata>
<g transform="translate(0.000000,960.000000) scale(0.100000,-0.100000)"
fill="#000000" stroke="none">
<path d="M5273 9589 c-6 -6 -24 -12 -40 -14 -40 -4 -84 -16 -116 -32 -25 -12
-34 -12 -78 2 -33 11 -70 15 -110 12 -33 -2 -62 0 -65 4 -3 5 0 9 7 9 7 0 10
2 7 5 -3 3 -45 -1 -94 -9 -96 -15 -155 -41 -244 -106 -30 -22 -64 -44 -75 -49
-35 -15 -119 -52 -145 -64 -14 -7 -47 -25 -75 -42 -139 -85 -174 -101 -193
-89 -11 8 -38 8 -82 2 -77 -11 -198 -13 -221 -4 -9 4 -46 -4 -84 -19 -37 -14
-74 -25 -83 -25 -30 0 -187 -63 -212 -85 -55 -49 -120 -84 -181 -100 -77 -20
-99 -31 -99 -50 0 -8 -9 -15 -20 -15 -32 0 -33 0 -69 -23 -19 -11 -61 -30 -93
-42 -60 -22 -114 -62 -205 -153 -53 -52 -69 -58 -33 -12 11 14 20 28 20 33 0
14 -29 7 -39 -10 -6 -10 -11 -12 -11 -5 0 24 -25 11 -50 -26 -13 -20 -23 -41
-22 -45 1 -5 -2 -6 -7 -3 -9 6 -101 -106 -101 -122 0 -5 -12 -19 -26 -33 -22
-20 -44 -56 -48 -79 -1 -3 -4 -9 -8 -15 -3 -5 -11 -37 -18 -70 -22 -107 5
-846 30 -822 3 3 5 -18 6 -47 0 -29 8 -71 17 -94 12 -30 13 -42 4 -45 -7 -2
-1 -10 13 -16 14 -7 35 -31 45 -53 11 -23 26 -43 34 -46 10 -3 11 0 2 16 -14
26 -14 42 -1 42 6 0 10 -5 10 -12 0 -6 18 -29 41 -50 22 -21 38 -38 34 -38
-16 0 55 -61 97 -83 37 -20 45 -27 34 -36 -10 -8 -22 -8 -45 2 -18 8 -31 16
-30 18 6 9 -18 36 -53 59 -21 14 -38 29 -38 33 0 5 -7 15 -15 23 -8 9 -15 12
-15 7 0 -10 28 -51 48 -72 7 -8 21 -25 30 -39 29 -44 170 -100 186 -74 11 17
127 -7 169 -36 63 -42 88 -96 89 -187 1 -41 5 -75 10 -75 4 0 8 -4 8 -9 0 -6
14 -25 30 -43 17 -18 38 -57 46 -86 9 -29 20 -50 25 -47 5 4 9 1 9 -4 0 -6 -5
-11 -11 -11 -8 0 -9 -20 -4 -67 4 -38 8 -102 9 -145 2 -117 12 -102 20 29 3
65 13 159 21 208 9 50 18 105 20 124 6 47 15 52 15 8 0 -36 13 -50 23 -24 3 6
8 -3 13 -22 7 -31 8 -33 21 -16 12 18 13 18 13 -2 0 -12 6 -24 13 -26 6 -3 -1
-6 -18 -7 -18 -2 -23 -4 -12 -7 9 -2 14 -9 11 -15 -4 -6 0 -14 7 -19 10 -6 8
-9 -9 -9 -14 0 -21 -4 -16 -11 3 -6 0 -15 -7 -20 -11 -7 -10 -9 4 -9 10 0 16
-4 13 -9 -3 -5 4 -12 17 -16 21 -7 20 -8 -8 -14 l-30 -8 30 -4 c27 -5 28 -6
10 -14 -46 -20 -59 -60 -29 -89 14 -15 14 -16 0 -16 -22 0 -20 -20 2 -21 10 0
12 -3 5 -6 -16 -6 -17 -33 -2 -33 5 0 7 6 3 13 -4 6 -3 9 1 5 5 -5 10 -19 11
-33 2 -23 1 -24 -13 -10 -19 20 -30 11 -13 -10 11 -13 10 -14 -4 -9 -11 4 -15
2 -12 -7 16 -50 16 -68 1 -63 -12 5 -15 0 -13 -25 1 -17 6 -31 10 -31 4 0 8
-5 8 -11 0 -8 -5 -7 -15 1 -21 17 -32 4 -17 -20 11 -18 9 -20 -15 -20 -20 0
-24 -3 -14 -9 9 -6 10 -10 2 -16 -9 -5 -9 -11 1 -23 11 -14 10 -15 -6 -9 -15
6 -17 4 -13 -13 3 -11 2 -20 -3 -20 -4 0 -12 -19 -18 -42 -13 -49 -55 -119
-105 -175 -24 -26 -35 -47 -34 -66 1 -15 6 -27 10 -27 5 0 6 -4 3 -9 -11 -17
27 -35 72 -33 38 1 42 -1 22 -8 -24 -8 -23 -8 10 -11 19 -1 40 -3 45 -4 6 -2
14 -3 19 -4 5 0 2 -9 -5 -18 -10 -11 -10 -14 -1 -9 6 4 12 2 12 -4 0 -6 -6
-13 -14 -16 -8 -3 -12 -12 -9 -20 3 -8 -1 -14 -11 -14 -9 0 -16 -4 -16 -10 0
-5 7 -10 15 -10 8 0 15 -5 15 -11 0 -5 -5 -7 -10 -4 -24 15 -7 -20 24 -48 58
-53 65 -58 100 -64 32 -5 33 -7 29 -40 -6 -42 4 -86 17 -78 6 3 10 1 10 -4 0
-6 -5 -11 -11 -11 -6 0 -4 -7 5 -15 8 -8 21 -15 28 -15 30 -1 60 -37 61 -73 1
-21 5 -37 10 -37 4 0 5 -5 1 -12 -5 -8 -2 -9 9 -5 12 5 17 1 17 -12 0 -10 7
-21 15 -25 8 -3 15 -16 14 -28 l0 -23 -9 23 c-11 25 -30 30 -30 7 0 -8 4 -15
9 -15 5 0 8 -8 7 -17 0 -10 4 -17 11 -16 7 2 11 -10 11 -30 -1 -28 -2 -29 -11
-10 -6 14 -22 24 -46 28 -20 4 -41 11 -46 15 -6 5 -26 10 -45 12 -27 2 -35 8
-36 23 -2 39 -4 45 -15 45 -7 0 -9 -10 -5 -25 4 -14 1 -34 -6 -44 -10 -17 -8
-31 12 -83 13 -35 25 -87 28 -115 2 -29 8 -53 14 -53 6 0 5 -7 -3 -16 -10 -13
-10 -17 2 -24 11 -8 12 -13 2 -30 -15 -23 -17 -50 -4 -50 5 0 12 -10 14 -22 4
-21 4 -21 4 2 1 42 3 46 13 30 5 -8 10 -32 10 -52 0 -34 12 -50 23 -30 2 4 2
1 0 -6 -1 -8 0 -31 3 -52 5 -29 10 -37 21 -33 12 5 14 1 9 -14 -5 -15 0 -25
19 -37 30 -20 35 -70 8 -85 -17 -9 -17 -10 0 -17 14 -5 17 -13 12 -31 -3 -15
0 -30 10 -40 11 -10 14 -25 11 -39 -5 -17 -2 -24 9 -24 18 0 21 46 3 53 -7 2
2 4 21 3 19 -1 36 -7 37 -14 1 -7 0 -8 -3 -2 -10 22 -23 8 -23 -25 0 -24 5
-35 14 -35 8 0 17 -4 20 -9 8 -12 -17 -89 -46 -145 -12 -23 -18 -66 -9 -66 4
0 17 9 29 20 12 12 22 16 22 11 0 -5 -9 -16 -20 -24 -12 -8 -20 -18 -19 -23 4
-21 -2 -28 -12 -14 -8 12 -9 12 -7 -5 1 -11 -1 -26 -5 -32 -5 -9 -3 -11 6 -7
11 4 15 -1 13 -19 0 -16 -6 -23 -15 -19 -10 4 -10 -1 2 -25 19 -35 47 -62 47
-44 0 7 5 9 10 6 6 -4 8 -11 5 -16 -3 -5 1 -6 10 -3 11 5 14 2 9 -10 -3 -9 -1
-23 5 -30 9 -11 9 -15 0 -18 -8 -3 -10 -11 -5 -24 4 -10 7 -20 7 -21 0 -2 14
-31 31 -65 17 -35 31 -71 30 -81 0 -10 4 -15 10 -11 7 5 9 -1 5 -18 -5 -17 -2
-30 8 -38 8 -7 15 -23 15 -37 0 -13 6 -26 14 -29 8 -3 12 -12 9 -20 -3 -8 0
-14 6 -14 6 0 11 -9 11 -19 0 -11 5 -21 12 -23 8 -3 7 -11 -5 -28 -22 -32 -21
-40 3 -40 11 0 20 -4 20 -9 0 -4 -11 -6 -25 -3 -23 4 -25 2 -25 -34 1 -22 10
-55 20 -74 l20 -35 -6 30 c-4 17 -11 35 -16 42 -5 7 -5 14 2 18 5 3 10 1 10
-4 0 -6 6 -11 14 -11 23 0 29 -19 15 -52 -8 -19 -9 -32 -2 -36 5 -4 10 -18 10
-32 1 -62 4 -80 13 -80 7 0 9 15 5 41 -5 31 -3 40 7 37 7 -3 13 -18 14 -34 0
-17 4 -35 8 -42 4 -7 2 -12 -4 -12 -8 0 -9 -7 -5 -17 4 -10 8 -28 8 -40 1 -12
5 -19 11 -16 5 4 7 -1 3 -10 -3 -10 -3 -17 2 -17 5 0 12 -16 15 -35 4 -19 12
-34 18 -32 12 2 14 -4 17 -39 0 -8 5 -12 11 -9 6 3 7 -1 4 -9 -4 -10 3 -20 20
-27 16 -8 33 -30 47 -65 12 -29 26 -51 30 -49 4 3 15 -8 25 -23 l18 -27 7 25
7 25 1 -26 c1 -31 42 -74 57 -59 12 12 46 1 79 -25 17 -14 18 -17 5 -25 -8 -5
-10 -10 -4 -10 5 0 15 -12 20 -27 8 -24 11 -25 17 -10 4 11 3 16 -3 12 -6 -3
-10 -1 -10 4 0 6 9 11 21 11 14 0 19 -5 16 -13 -3 -8 -1 -20 5 -28 8 -11 9
-10 4 4 -3 9 -1 17 4 17 5 0 15 -18 21 -40 10 -32 9 -58 -4 -137 -15 -91 -28
-277 -42 -603 -8 -184 -35 -422 -53 -470 -3 -8 -5 -35 -5 -60 0 -39 -1 -40 -4
-8 -2 20 -10 39 -18 42 -11 4 -12 -1 -3 -25 8 -24 7 -33 -6 -48 -17 -19 -13
-77 4 -66 7 5 1 -126 -6 -134 -2 -2 -4 21 -4 52 0 31 -3 58 -8 61 -4 2 -4 -37
0 -87 4 -51 5 -110 2 -132 -2 -22 -9 -98 -15 -170 -6 -72 -15 -175 -20 -230
-5 -55 -11 -137 -15 -182 l-5 -83 66 0 c44 0 67 4 69 13 2 6 9 32 16 57 6 25
18 60 26 78 8 18 14 43 14 55 0 12 6 33 13 47 8 15 17 44 20 65 5 32 2 45 -20
74 -26 35 -26 36 -2 14 23 -21 25 -21 36 -5 6 10 13 33 17 52 4 19 14 69 22
110 8 41 20 100 26 130 11 59 22 97 44 147 8 17 14 37 14 44 0 16 51 152 59
159 3 3 21 34 38 70 48 95 72 137 171 290 20 30 70 96 111 145 41 50 79 95 84
101 106 133 272 288 389 365 160 105 241 120 666 124 l302 4 83 33 c45 18 84
35 87 38 3 3 25 12 50 19 25 7 54 17 65 21 11 5 31 11 45 13 14 3 61 13 105
22 44 9 89 18 100 21 120 24 201 34 224 26 31 -11 51 -5 51 13 0 8 13 23 30
35 18 13 27 26 23 35 -3 8 -1 15 4 15 11 0 43 54 43 73 0 9 -17 26 -37 38 -21
13 -43 28 -50 34 -7 5 -50 42 -97 80 -47 39 -85 74 -86 79 0 6 5 5 12 -2 7 -7
22 -12 34 -12 12 0 27 -7 34 -15 7 -8 16 -12 22 -9 13 8 -31 44 -47 38 -7 -3
-16 -1 -20 5 -3 6 -16 11 -28 11 -29 1 -61 26 -52 40 4 7 1 17 -6 22 -10 7 -7
7 8 3 19 -5 22 -3 16 12 -12 34 -25 43 -74 49 -27 4 -49 11 -49 16 0 6 10 7
23 4 12 -4 37 -9 54 -13 18 -3 38 -12 44 -19 6 -8 18 -14 25 -14 8 0 22 -4 32
-9 9 -5 37 -15 62 -22 25 -7 52 -19 61 -26 8 -7 21 -13 27 -13 7 0 12 -5 12
-11 0 -6 -9 -8 -22 -4 -21 6 -22 5 -4 -6 14 -9 24 -9 37 0 15 8 25 7 50 -7 31
-17 49 -52 27 -52 -6 0 -8 6 -5 14 3 8 -1 17 -9 20 -21 8 -24 8 -24 -5 0 -5 5
-7 11 -3 8 4 9 0 4 -15 -4 -12 -2 -21 4 -21 12 0 15 -33 5 -43 -4 -3 -18 3
-32 13 -25 20 -82 28 -82 12 0 -5 10 -14 23 -21 22 -11 22 -11 -3 -5 -22 6
-23 5 -11 -10 7 -9 17 -16 22 -16 18 0 109 -64 109 -77 0 -37 60 -112 90 -113
23 0 103 -32 123 -48 9 -8 17 -23 17 -33 0 -10 5 -21 10 -24 6 -3 10 -3 10 2
0 4 18 27 40 51 22 23 40 49 40 57 0 16 -16 20 -24 6 -3 -5 -16 -11 -28 -14
l-23 -6 24 20 c13 11 21 23 17 27 -4 4 -37 23 -73 42 -37 19 -80 52 -96 72
-29 36 -30 40 -18 76 11 33 11 43 -2 68 -20 39 -63 78 -76 69 -6 -3 -11 -1
-11 5 0 7 -8 24 -18 38 -10 15 -24 45 -31 67 -8 22 -17 42 -20 45 -3 3 -21 35
-40 72 -19 38 -41 68 -48 68 -7 0 -13 -1 -13 -3 0 -5 71 -141 80 -152 4 -5 10
-20 13 -32 7 -29 -12 -30 -62 -4 -41 22 -112 47 -158 56 -29 6 -67 35 -47 35
12 0 -19 20 -31 20 -5 0 -3 -5 5 -11 13 -9 13 -10 -1 -6 -10 3 -35 11 -58 18
-22 6 -38 16 -35 20 3 5 -1 6 -9 3 -29 -11 -94 16 -120 49 -40 53 -67 122 -67
174 0 62 19 38 21 -27 l2 -45 6 50 6 50 35 -3 c19 -2 42 -5 51 -8 13 -4 18 5
23 41 5 29 12 45 21 45 17 0 35 -31 35 -59 0 -32 17 -25 29 12 13 39 5 71 -15
63 -8 -3 -14 1 -14 10 0 11 5 14 16 10 9 -4 32 3 51 14 36 21 53 19 53 -6 0
-8 9 -14 20 -14 11 0 20 6 20 13 0 13 -24 31 -85 60 -22 11 -72 44 -112 73
-39 30 -80 54 -90 54 -11 0 -36 15 -56 34 l-37 34 0 96 c0 70 5 113 20 156 17
51 21 95 25 337 6 307 9 323 65 323 18 0 33 -7 39 -19 7 -12 18 -17 34 -14 13
3 40 0 59 -5 25 -7 41 -6 59 4 13 7 45 13 70 14 37 0 48 4 55 21 6 12 28 31
49 44 33 18 45 34 72 96 17 41 39 99 48 129 9 30 26 73 38 95 11 22 33 77 49
123 26 76 28 91 22 180 -5 74 -3 105 8 132 13 31 13 40 1 75 -10 28 -13 64 -9
120 6 101 -22 211 -68 266 -17 20 -43 69 -58 108 -31 78 -35 139 -17 256 6 39
11 85 11 103 0 18 3 30 8 27 9 -6 21 46 22 98 0 20 4 37 8 37 5 0 12 20 16 45
3 25 10 43 14 40 4 -2 13 7 20 20 14 27 8 107 -9 113 -6 2 -11 10 -11 18 0 9
4 13 9 9 16 -9 23 13 27 93 3 42 9 91 13 107 11 37 9 175 -3 193 -5 8 -3 18 4
25 10 9 11 9 6 0 -4 -7 -2 -13 5 -13 7 0 9 10 7 25 -3 13 -2 22 3 20 6 -4 14
249 10 338 -1 15 2 27 7 27 9 0 50 53 54 70 2 6 20 30 41 53 21 23 40 52 43
65 6 23 -12 56 -26 47 -16 -10 -20 13 -5 25 24 20 18 33 -36 85 -29 28 -49 42
-46 33 4 -10 2 -18 -3 -18 -6 0 -10 7 -10 15 0 8 -6 15 -14 15 -8 0 -18 5 -22
12 -5 8 -2 9 9 5 30 -11 18 17 -27 63 -57 58 -69 67 -82 63 -12 -4 -68 78 -96
139 -9 21 -26 48 -38 60 -11 12 -18 28 -15 36 3 8 0 10 -7 6 -8 -5 -9 -2 -5
10 6 14 3 17 -8 12 -9 -3 -13 -2 -10 4 3 5 -3 15 -15 22 -11 7 -20 18 -20 24
0 17 -24 34 -87 60 -32 13 -57 28 -55 34 1 5 -4 10 -11 10 -26 0 -52 82 -38
118 2 7 51 -56 51 -66 0 -5 7 -15 15 -22 19 -16 19 -9 0 37 -13 31 -13 34 0
23 27 -23 17 9 -32 99 -26 47 -61 124 -78 171 -29 78 -36 87 -78 112 -25 14
-48 24 -52 20 -3 -4 -3 2 1 11 5 13 -3 28 -25 51 -17 18 -28 36 -24 41 5 4 3
6 -2 3 -6 -4 -23 5 -40 18 -28 22 -28 23 -5 17 l25 -6 -25 20 c-14 11 -63 33
-110 48 -47 15 -89 31 -95 36 -5 5 -19 9 -30 9 -35 0 -86 30 -104 61 -9 16
-26 34 -38 40 -30 16 -22 24 9 9 22 -11 22 -10 3 4 -11 8 -25 19 -31 24 -16
14 -155 62 -180 62 -26 0 -41 16 -22 23 7 2 0 4 -16 4 -15 0 -32 6 -36 13 -4
7 -12 10 -18 6 -6 -3 -13 -2 -16 3 -3 5 -30 12 -59 16 -53 7 -120 21 -147 32
-22 9 -48 12 -120 16 -53 3 -64 7 -62 19 2 12 -3 15 -20 10 -20 -5 -21 -3 -11
10 7 8 9 18 5 23 -4 4 3 2 15 -6 12 -7 25 -10 29 -6 15 14 -8 20 -82 22 -45 1
-70 -1 -62 -6 9 -6 6 -9 -10 -9 -13 0 -20 4 -17 10 8 13 2 13 -12 -1z m-1068
-4339 c-3 -5 3 -10 14 -10 11 0 23 -4 26 -10 3 -5 -3 -10 -14 -10 -12 0 -21
-4 -21 -10 0 -5 4 -10 9 -10 5 0 5 -15 1 -36 -5 -20 -6 -43 -3 -50 3 -8 1 -14
-5 -14 -12 0 -23 -51 -14 -65 4 -5 7 -23 8 -38 1 -23 -1 -27 -18 -21 -14 4
-18 2 -14 -5 4 -6 16 -11 27 -11 20 0 26 -24 9 -35 -7 -4 -9 -39 -6 -96 3 -54
2 -89 -4 -89 -6 0 -10 14 -10 30 0 17 -4 30 -10 30 -5 0 -10 -16 -10 -35 0
-41 -11 -45 -30 -10 -13 25 -40 35 -40 15 0 -5 7 -10 15 -10 8 0 15 -9 15 -20
0 -15 7 -20 26 -20 24 0 25 -2 22 -50 -2 -28 -7 -50 -12 -49 -5 0 -13 -5 -18
-13 -7 -10 -11 -10 -15 0 -2 6 -11 12 -20 12 -21 0 -7 -58 21 -83 20 -18 20
-18 1 -12 -41 15 -49 11 -51 -24 -1 -19 2 -28 6 -21 12 19 23 -6 16 -35 -3
-13 -2 -27 4 -30 5 -3 10 -38 10 -77 l0 -70 -27 7 c-16 3 -50 7 -78 8 -44 1
-52 5 -64 29 -7 15 -17 25 -22 22 -5 -3 -9 5 -9 18 0 16 3 19 9 10 5 -9 10 7
14 44 8 73 27 96 28 33 l1 -44 10 35 c6 19 12 60 15 89 4 45 11 60 35 83 29
27 30 30 13 42 -21 15 -16 47 10 61 11 5 21 22 23 38 4 31 -5 35 -24 10 -16
-21 -19 -2 -5 25 20 37 35 86 35 116 1 24 5 31 21 31 11 0 21 8 23 18 3 15 0
18 -16 13 -17 -6 -19 -3 -15 16 3 13 12 28 20 35 16 13 20 38 9 71 -5 13 -3
22 3 22 6 0 11 15 11 34 0 46 9 66 29 67 11 0 12 2 3 6 -10 4 -9 8 5 19 17 13
17 13 -2 14 -17 0 -17 2 -5 10 20 13 43 13 35 0z m631 -326 c21 8 57 -12 50
-29 -6 -16 24 -9 35 8 10 15 36 -14 34 -37 -2 -14 -1 -15 2 -3 5 18 15 22 27
10 4 -5 12 -8 18 -8 11 0 14 -5 39 -57 7 -16 14 -26 17 -23 3 2 -1 11 -8 20
-15 19 -6 32 12 17 7 -5 30 -13 51 -17 31 -6 39 -12 44 -36 6 -31 20 -38 29
-14 4 8 12 15 20 15 8 0 14 4 14 9 0 15 -27 20 -39 8 -8 -8 -11 -8 -11 1 0 11
14 17 35 12 75 -14 101 -17 109 -12 5 3 2 8 -7 11 -11 4 -14 10 -7 20 7 12 11
12 24 2 8 -7 20 -10 26 -6 17 10 11 -4 -10 -27 -27 -29 -20 -31 26 -8 21 10
32 19 23 20 -21 0 -30 22 -18 41 5 8 6 22 3 32 -5 15 -1 18 23 15 19 -2 29
-10 31 -23 2 -11 9 -24 14 -30 7 -7 8 -1 4 18 -6 26 -5 28 16 22 22 -6 22 -5
5 9 -25 20 -6 29 43 21 30 -5 40 -11 40 -26 0 -11 7 -19 16 -19 11 0 14 6 9
21 -6 18 -4 21 13 17 15 -4 22 0 26 16 5 20 7 20 31 -9 20 -22 28 -26 34 -16
14 21 51 4 51 -24 0 -13 6 -25 13 -28 9 -3 9 -11 2 -32 -14 -40 -39 -46 -33
-9 3 16 3 23 1 17 -5 -14 -23 -18 -23 -5 0 4 -11 9 -25 10 -14 1 -25 -3 -25
-8 0 -6 9 -10 20 -10 13 0 20 -7 20 -20 0 -22 -33 -60 -52 -60 -18 -1 -48 -25
-48 -39 0 -6 -4 -11 -10 -11 -5 0 -10 5 -10 10 0 6 -4 10 -9 10 -4 0 -8 -13
-7 -30 1 -24 5 -30 24 -30 13 0 21 -4 18 -9 -7 -11 -48 -2 -58 13 -5 6 -8 1
-8 -11 0 -13 5 -23 12 -23 9 0 9 -3 1 -11 -6 -6 -9 -17 -6 -25 3 -9 -4 -12
-26 -9 -25 3 -31 1 -31 -15 0 -11 -4 -20 -10 -20 -5 0 -10 8 -10 18 0 9 -5 24
-10 32 -8 11 -9 8 -4 -13 5 -22 3 -26 -10 -21 -16 6 -20 -3 -17 -37 1 -8 -10
-21 -24 -27 -14 -6 -25 -16 -25 -22 0 -5 -5 -10 -11 -10 -8 0 -8 4 0 14 9 10
9 16 1 21 -16 10 -43 -3 -34 -17 5 -7 1 -9 -14 -6 -17 5 -21 0 -27 -28 -5 -31
-25 -49 -25 -23 0 7 -9 9 -22 6 -14 -4 -29 0 -40 10 -23 21 -23 33 0 33 10 0
23 5 29 11 6 6 17 9 25 6 8 -3 3 -9 -14 -17 -27 -13 -39 -40 -18 -40 6 0 10 5
10 10 0 6 10 10 23 10 14 0 26 9 34 25 6 14 7 23 3 20 -5 -3 -11 -1 -14 4 -4
5 -2 12 4 16 5 3 10 14 10 23 0 12 -3 13 -8 5 -4 -7 -23 -16 -41 -19 -31 -7
-32 -6 -20 14 7 11 22 24 34 27 20 6 20 6 0 15 -27 12 -37 12 -30 0 9 -14 -21
-41 -38 -34 -20 7 -31 -14 -17 -31 10 -12 10 -15 -1 -15 -19 0 -59 41 -59 62
0 19 -15 24 -25 8 -9 -15 -118 -13 -113 3 3 8 30 12 81 14 63 1 77 -2 80 -15
4 -15 5 -16 6 -1 0 9 -6 22 -14 29 -8 7 -15 21 -15 31 0 11 -4 19 -10 19 -5 0
-10 -7 -10 -15 0 -21 -13 -19 -27 5 -11 16 -10 21 5 29 14 9 13 10 -10 11 -18
0 -28 -5 -28 -15 0 -11 -11 -14 -40 -13 -24 1 -36 4 -28 9 10 6 9 9 -2 13 -8
2 -22 7 -30 9 -8 3 -4 6 11 6 14 1 30 -4 36 -10 14 -14 47 -4 38 11 -3 6 1 13
9 16 20 8 21 24 1 24 -8 0 -15 -6 -15 -14 0 -20 -27 -28 -49 -14 -21 13 -75 2
-65 -13 3 -6 -3 -5 -15 3 -33 20 -25 28 32 29 51 1 52 1 17 11 -19 5 -51 8
-72 6 -34 -3 -38 -1 -38 19 0 26 18 31 26 8 4 -8 12 -15 20 -15 8 0 14 7 14
15 0 8 -7 15 -15 15 -8 0 -15 5 -15 10 0 19 -27 10 -38 -12 -10 -22 -11 -22
-11 6 -1 25 -4 27 -26 22 -33 -8 -34 16 0 38 13 9 27 16 30 16 10 0 5 -28 -7
-32 -7 -3 -5 -7 6 -11 14 -6 17 -2 14 21 -3 23 -7 27 -30 24 -16 -1 -28 1 -28
5 0 13 39 43 53 40 6 -1 12 5 12 13 0 9 -7 14 -17 12 -10 -2 -18 1 -18 6 0 16
13 22 26 11 8 -6 21 -9 30 -5z m-878 -169 c2 -10 -1 -21 -8 -25 -6 -4 -13 -22
-14 -41 -6 -62 -18 -108 -31 -119 -7 -6 -11 -19 -8 -29 3 -11 0 -28 -6 -40 -8
-14 -8 -21 -1 -21 5 0 10 -5 10 -11 0 -8 -5 -7 -15 1 -23 19 -30 5 -17 -36 10
-33 9 -36 -9 -31 -14 4 -19 0 -20 -16 0 -12 -3 -52 -8 -89 -4 -38 -3 -68 1
-68 4 0 8 -11 8 -24 0 -13 5 -26 11 -28 13 -4 30 -77 24 -99 -3 -9 9 -31 29
-52 19 -21 31 -37 27 -37 -12 0 -141 125 -141 137 0 6 -8 13 -17 16 -10 2 -27
8 -38 12 -16 6 -15 3 5 -14 22 -18 22 -21 7 -21 -11 0 -34 15 -53 34 -32 32
-34 38 -34 100 0 36 4 66 8 66 5 0 15 11 22 25 14 27 35 33 44 13 3 -7 4 -1 1
15 -4 20 -1 27 10 27 8 0 15 -6 15 -14 0 -8 4 -18 10 -21 5 -3 9 9 8 30 -1 20
3 40 8 43 15 10 54 99 54 121 0 11 5 23 10 26 6 3 10 17 10 30 0 13 4 25 9 27
12 4 61 104 61 124 0 21 24 12 28 -11z m-67 -1235 c12 -27 27 -46 32 -43 6 4
8 0 4 -10 -4 -12 -1 -17 11 -17 13 0 14 -2 4 -9 -10 -6 -3 -17 25 -42 21 -19
44 -42 51 -51 12 -14 10 -16 -10 -11 -13 3 -32 13 -43 23 -36 31 -48 35 -36
12 13 -25 -2 -40 -23 -23 -9 8 -23 6 -52 -8 -24 -12 -40 -15 -43 -9 -2 6 2 14
8 17 16 10 -4 61 -24 61 -19 0 -19 -9 -1 -24 9 -7 12 -22 9 -43 -6 -37 -23
-35 -23 3 0 14 -7 32 -15 40 -12 12 -12 20 -4 36 9 16 8 19 -2 13 -9 -6 -10
-3 -6 10 6 14 3 16 -13 12 -13 -3 -20 0 -20 8 0 8 -8 19 -17 24 -11 7 -13 11
-5 11 7 0 28 -11 46 -25 41 -31 71 -33 63 -5 -6 23 14 43 36 34 21 -8 29 10
17 40 -17 47 8 27 31 -24z"/>
<path d="M7747 2530 c-29 -33 -57 -60 -60 -60 -12 0 -51 -34 -97 -84 -135
-146 -169 -176 -205 -176 -28 0 -37 -5 -44 -22 -19 -50 -117 -114 -204 -133
-34 -8 -82 -19 -107 -25 -25 -5 -56 -13 -70 -16 -32 -7 -173 -153 -166 -171 3
-8 2 -11 -4 -8 -5 3 -16 -8 -25 -26 -18 -34 -9 -33 33 5 17 15 43 23 95 27 69
7 147 27 147 40 0 3 33 -3 73 -13 50 -13 84 -16 112 -11 22 4 47 7 55 5 21 -2
111 18 135 31 11 6 23 10 27 9 5 -1 28 13 52 32 24 18 57 37 72 40 16 4 32 12
35 18 4 6 16 4 32 -6 19 -13 37 -15 76 -10 28 4 51 10 51 15 0 15 77 10 90 -6
10 -12 10 -15 -1 -16 -31 -1 29 -18 68 -18 48 -1 67 -18 26 -24 -20 -3 -16 -4
15 -6 35 -1 42 -4 42 -21 0 -11 2 -20 4 -20 13 0 72 25 77 33 8 11 79 -10 79
-24 0 -5 7 -9 16 -9 11 0 14 -6 9 -22 -4 -13 -11 -27 -16 -32 -5 -6 -9 -23 -9
-38 0 -24 4 -28 26 -28 21 0 24 3 15 14 -9 10 -8 16 4 26 12 10 16 10 20 -2 4
-9 19 -13 43 -12 52 2 93 -7 85 -19 -3 -6 5 -8 23 -5 29 4 29 3 25 -39 -2 -34
0 -43 13 -43 24 0 19 -38 -9 -66 -25 -25 -36 -94 -15 -94 6 0 10 9 10 20 0 12
11 31 25 44 14 13 25 29 25 35 0 7 5 22 12 34 12 22 12 21 18 -8 l6 -30 31 33
c35 36 43 39 43 17 0 -11 11 -15 40 -15 29 0 40 4 40 15 0 10 10 15 28 15 16
0 39 9 52 20 13 11 27 20 31 20 4 0 11 9 14 20 4 13 15 20 31 20 21 0 24 -4
24 -40 0 -36 -2 -40 -25 -40 -23 0 -25 -4 -25 -45 0 -36 -5 -51 -25 -69 -20
-19 -25 -33 -25 -75 0 -30 -4 -51 -11 -51 -6 0 -24 -13 -40 -29 -21 -22 -29
-39 -29 -65 0 -20 -5 -36 -11 -36 -5 0 -15 -14 -21 -30 -5 -17 -19 -35 -29
-41 -10 -5 -19 -19 -19 -30 0 -12 -17 -55 -37 -97 -37 -75 -38 -81 -41 -204
l-4 -128 -39 0 -39 0 0 50 c0 38 -4 50 -15 50 -11 0 -15 -11 -15 -40 0 -36 -2
-40 -25 -40 -20 0 -25 -5 -25 -25 0 -22 -4 -25 -40 -25 l-40 0 0 65 c0 51 -3
65 -15 65 -11 0 -15 -11 -15 -40 0 -36 -3 -40 -24 -40 -21 0 -25 6 -28 33 l-3
32 -37 -37 c-32 -31 -38 -44 -38 -79 0 -33 -6 -47 -30 -69 -25 -23 -30 -36
-30 -74 0 -25 -4 -46 -10 -46 -5 0 -10 7 -10 16 0 9 -6 14 -12 12 -9 -3 -14
-34 -16 -96 -2 -73 -6 -92 -17 -92 -11 0 -15 -12 -15 -40 0 -36 -2 -40 -25
-40 -22 0 -25 -4 -25 -40 0 -29 -4 -40 -15 -40 -11 0 -15 -11 -15 -36 0 -29
-8 -43 -42 -76 -38 -37 -41 -42 -24 -48 19 -6 18 -8 -5 -31 l-24 -24 -3 27
c-3 27 -6 28 -58 28 l-54 0 0 -40 0 -40 935 0 935 0 0 779 c0 767 0 780 -20
786 -11 3 -40 31 -66 61 -33 39 -57 57 -86 64 -21 6 -48 20 -59 31 -11 11 -37
23 -57 26 -20 4 -67 26 -104 50 -36 24 -71 43 -76 43 -5 0 -15 7 -22 15 -7 9
-20 15 -29 14 -35 -3 -52 1 -45 12 4 7 -3 10 -17 9 -37 -3 -63 -1 -57 6 3 3
-5 16 -18 29 -23 23 -53 24 -79 4 -20 -15 -106 -1 -130 21 -15 14 -25 18 -30
11 -3 -6 0 -12 7 -12 7 -1 0 -5 -17 -9 -28 -7 -27 -7 7 -5 20 2 38 -1 40 -6 2
-4 19 -10 40 -13 20 -2 48 -12 62 -21 26 -17 26 -18 9 -37 -15 -17 -26 -19
-69 -13 -28 3 -76 13 -105 20 -30 8 -68 15 -86 15 -34 0 -75 15 -156 57 -26
13 -52 21 -59 17 -8 -5 -9 -2 -5 10 4 10 2 16 -6 15 -6 -1 -21 -1 -32 1 l-20
1 20 9 c15 7 16 9 4 9 -9 1 -22 8 -29 16 -8 9 -21 13 -34 10 -13 -4 -16 -3 -9
2 10 7 8 13 -8 26 -11 10 -24 15 -30 12 -5 -4 -8 -1 -7 6 2 6 -3 14 -11 17 -9
3 -11 0 -6 -8 4 -7 -6 -2 -24 11 -34 25 -42 46 -11 29 14 -7 20 -7 20 0 0 5
-7 10 -15 10 -8 0 -15 5 -15 10 0 6 -5 9 -11 8 -6 -2 -14 3 -16 10 -3 8 1 10
11 6 9 -3 16 -1 16 5 0 6 -4 11 -10 11 -5 0 -10 7 -10 15 0 8 -4 15 -10 15 -5
0 -10 -6 -10 -13 0 -7 -9 -18 -20 -25 -18 -11 -23 -8 -50 30 -38 55 -71 88
-87 88 -12 0 -18 14 -14 34 3 14 -20 110 -29 121 -5 6 -8 22 -7 38 2 25 5 27
30 21 20 -4 27 -2 27 10 0 8 -5 18 -10 21 -6 4 -10 12 -9 18 4 30 -3 37 -35
37 -29 0 -42 -9 -89 -60z"/>
<path d="M6335 2028 c-22 -5 -83 -12 -135 -14 -52 -3 -99 -9 -105 -14 -5 -4
-41 -5 -80 -2 -38 3 -123 6 -188 6 -112 1 -120 0 -137 -21 -10 -13 -29 -23
-43 -23 -17 0 -33 -10 -47 -30 -12 -16 -26 -30 -32 -30 -17 0 -55 -46 -62 -75
-4 -15 -15 -29 -26 -32 -35 -9 -29 -38 18 -88 37 -39 47 -45 56 -33 44 58 97
118 131 148 22 19 50 45 62 57 12 12 37 30 55 40 18 10 35 21 38 24 15 16 96
39 140 38 49 -2 62 -19 14 -19 -15 0 -23 -4 -19 -10 4 -6 10 -8 15 -5 4 3 10
-1 13 -9 4 -9 19 -13 44 -11 38 2 54 5 128 28 l40 12 -30 6 c-24 4 -18 6 28
10 63 4 72 -1 30 -18 l-28 -12 30 6 c17 3 34 9 39 14 5 4 15 5 22 2 8 -3 14 0
14 6 0 6 -6 11 -12 12 -7 1 16 7 51 15 75 16 90 13 29 -6 -24 -8 -50 -19 -58
-25 -8 -7 -30 -18 -47 -26 -18 -8 -33 -17 -33 -21 0 -4 -8 -5 -17 -3 -10 3 -4
-1 12 -9 46 -23 157 -20 206 5 30 15 44 17 54 9 17 -14 242 -16 276 -2 15 6
30 8 33 4 4 -3 13 4 22 16 8 12 21 22 28 22 8 0 17 7 20 16 5 14 4 15 -8 5
-11 -10 -23 -10 -48 -2 -53 18 -314 51 -386 50 -37 -1 -85 -6 -107 -11z"/>
<path d="M5303 1669 c-7 -7 -13 -18 -13 -25 0 -6 -9 -22 -19 -36 -11 -13 -23
-37 -27 -52 -3 -15 -17 -34 -31 -43 -13 -9 -31 -29 -39 -45 -8 -16 -19 -26
-24 -23 -9 5 -50 -46 -50 -63 0 -5 -6 -12 -14 -15 -8 -3 -20 -24 -27 -46 -7
-23 -18 -41 -25 -41 -7 0 -23 -18 -35 -39 -12 -22 -30 -41 -40 -44 -9 -3 -24
-19 -33 -35 -9 -17 -27 -42 -40 -55 -14 -14 -30 -43 -36 -66 -6 -22 -16 -41
-23 -41 -7 0 -21 -23 -32 -51 -11 -28 -25 -54 -32 -56 -7 -3 -18 -31 -24 -64
-6 -32 -15 -59 -20 -59 -5 0 -16 -25 -24 -55 -9 -30 -21 -55 -26 -55 -6 0 -8
-4 -4 -9 3 -5 1 -12 -4 -16 -6 -3 -13 -26 -17 -50 -3 -25 -9 -45 -13 -45 -4 0
-15 -26 -25 -57 -10 -32 -23 -61 -28 -64 -5 -3 -12 -28 -17 -55 -5 -27 -16
-62 -25 -79 -9 -16 -16 -38 -16 -47 0 -21 -28 -137 -40 -163 -5 -11 -11 -32
-14 -47 l-6 -28 74 0 75 0 31 103 c18 56 37 116 44 132 8 17 17 45 21 64 6 28
25 76 65 166 4 11 11 34 15 50 3 17 20 59 37 95 35 74 40 87 67 155 10 28 35
79 55 113 20 35 36 68 36 73 0 5 5 9 11 9 5 0 7 5 4 10 -3 6 -2 10 4 10 5 0
12 8 16 19 3 10 28 45 56 77 78 90 93 108 108 135 54 90 80 127 107 151 17 15
46 50 65 78 27 40 38 48 54 43 18 -5 19 -4 5 13 -8 10 -17 21 -21 24 -28 25
-64 90 -68 122 -5 31 -8 37 -18 27z"/>
</g>
</svg>
