<?xml version="1.0" standalone="no"?>
<!DOCTYPE svg PUBLIC "-//W3C//DTD SVG 20010904//EN"
 "http://www.w3.org/TR/2001/REC-SVG-20010904/DTD/svg10.dtd">
<svg version="1.0" xmlns="http://www.w3.org/2000/svg"
 width="250.000000pt" height="250.000000pt" viewBox="0 0 250.000000 250.000000"
 preserveAspectRatio="xMidYMid meet">
<metadata>
Created by potrace 1.15, written by Peter Selinger 2001-2017
</metadata>
<g transform="translate(0.000000,250.000000) scale(0.100000,-0.100000)"
fill="#000000" stroke="none">
<path d="M4 1250 c-1 -690 1 -1246 3 -1235 7 26 25 37 35 22 5 -8 8 -7 8 4 0
19 42 50 71 52 10 1 19 5 19 9 0 4 5 8 10 8 6 0 9 -3 8 -7 0 -5 2 -16 7 -26 4
-10 5 -21 1 -24 -3 -4 -6 1 -6 10 0 10 -7 17 -15 17 -8 0 -15 -9 -15 -20 0
-13 -9 -21 -27 -25 -16 -4 -41 -13 -58 -20 l-30 -14 37 1 c21 1 38 6 38 10 0
4 5 8 11 8 5 0 7 -5 4 -10 -4 -6 12 -10 39 -10 l46 0 0 70 c0 40 4 70 10 70 6
0 10 -30 10 -70 0 -62 2 -70 19 -70 28 0 52 11 46 20 -3 5 0 12 6 16 8 4 9 3
5 -4 -4 -7 -1 -12 9 -12 9 0 13 5 10 10 -3 6 2 10 12 10 16 -1 15 -3 -5 -20
l-22 -18 54 1 c42 1 56 5 59 18 4 15 57 34 55 20 0 -3 0 -14 1 -23 1 -23 41
-24 41 -2 0 8 -5 12 -10 9 -6 -3 -10 -1 -10 4 0 6 7 11 15 11 8 0 15 -9 15
-20 0 -11 3 -20 8 -20 4 0 6 31 4 70 -2 46 0 70 7 70 6 0 12 -12 12 -27 3 -70
7 -104 13 -110 3 -4 6 6 6 20 0 22 5 27 24 27 13 0 31 3 40 6 19 7 22 25 4 19
-30 -11 -68 -13 -68 -4 0 5 6 9 13 10 33 2 53 9 66 26 13 17 13 17 7 -2 -7
-18 -5 -18 14 3 24 25 31 27 48 10 20 -20 15 -40 -8 -33 -11 3 -28 2 -37 -4
-11 -6 -13 -11 -5 -12 6 -1 16 -2 21 -3 22 -3 22 -16 0 -16 -17 0 -20 -3 -10
-9 7 -5 21 -6 31 -4 10 3 24 -3 31 -14 16 -20 59 -30 59 -13 0 6 -4 8 -10 5
-6 -3 -7 1 -4 9 4 10 1 16 -7 16 -8 0 -1 7 15 15 32 17 72 22 46 6 -8 -6 -17
-8 -20 -6 -4 2 -7 -2 -7 -10 0 -8 4 -12 8 -9 4 2 10 -2 12 -8 4 -10 8 -9 16 2
9 13 11 13 11 -2 0 -9 -6 -19 -12 -21 -7 -3 2 -6 21 -6 31 -1 33 1 26 27 -3
15 -11 29 -16 30 -5 2 -9 12 -9 22 0 10 -6 20 -12 23 -7 2 -10 8 -6 12 12 13
24 -3 43 -59 11 -31 22 -56 26 -56 9 0 -4 48 -20 78 -9 17 -9 21 2 17 7 -3 19
-25 26 -50 10 -33 17 -43 32 -42 11 1 17 6 15 12 -2 5 -8 9 -14 8 -5 -1 -12 7
-15 19 -5 18 -1 16 27 -11 17 -17 38 -31 46 -31 9 0 8 5 -6 15 -18 13 -18 14
5 8 17 -4 22 -3 17 5 -4 7 -2 12 4 12 6 0 10 -8 8 -17 -2 -12 5 -19 20 -21 20
-3 23 0 17 17 l-6 21 36 -21 c20 -12 39 -19 42 -15 3 3 -9 12 -28 21 -19 8
-47 26 -63 39 -16 13 -35 22 -42 19 -8 -3 -20 10 -30 34 -9 21 -21 48 -27 60
-10 23 -50 38 -69 27 -6 -4 -8 -3 -4 4 3 6 2 13 -4 17 -5 3 -7 17 -4 31 4 14
2 24 -4 24 -14 0 -74 160 -68 182 2 10 1 16 -4 13 -12 -8 -22 126 -14 207 6
67 4 79 -19 124 -23 46 -57 177 -57 222 0 24 -25 48 -35 32 -9 -14 -50 -13
-62 3 -23 28 -42 163 -38 271 3 78 0 117 -10 135 -25 50 -51 328 -32 358 4 6
0 18 -8 26 -16 16 -10 81 6 71 5 -3 6 2 3 10 -3 9 -2 16 3 16 5 0 10 7 10 15
0 8 -4 12 -9 9 -4 -3 -8 2 -8 10 0 10 6 13 18 10 12 -4 13 -3 4 3 -15 12 -4
48 25 78 11 12 23 33 27 49 4 16 10 26 13 23 8 -9 33 19 33 36 0 8 6 20 14 26
11 9 15 7 20 -12 3 -13 12 -24 20 -24 9 0 12 7 9 21 -12 49 -8 59 24 70 18 6
33 16 34 21 0 6 8 9 17 7 15 -2 15 -1 2 7 -13 9 -13 11 3 11 9 0 17 5 17 11 0
5 -5 7 -12 3 -7 -4 -8 -3 -4 4 4 7 14 12 22 12 9 0 12 -5 8 -12 -4 -7 -3 -8 5
-4 6 4 9 11 7 15 -9 14 62 51 102 54 32 1 43 7 52 25 10 22 15 23 85 20 41 -2
75 0 75 3 0 10 63 9 98 -2 17 -6 32 -14 32 -19 0 -4 10 -6 21 -3 15 4 27 0 36
-12 8 -12 28 -20 54 -21 22 -1 48 -9 58 -18 10 -9 23 -16 29 -16 6 0 13 -4 16
-9 3 -4 -13 -8 -36 -8 -37 0 -40 1 -23 13 10 8 14 14 8 14 -7 0 -14 -4 -18
-10 -3 -5 -13 -6 -21 -3 -11 4 -12 8 -4 13 9 5 9 9 1 14 -12 8 -12 6 -15 -34
0 -14 -5 -32 -10 -40 -7 -12 -6 -12 4 -3 13 12 40 7 40 -9 0 -5 -5 -6 -11 -2
-8 5 -8 1 0 -14 6 -12 17 -24 24 -28 9 -5 9 -4 0 7 -18 19 -16 32 3 25 14 -5
15 -4 5 8 -14 17 2 31 22 20 8 -5 8 -2 -2 9 -7 9 -9 17 -3 17 5 0 15 -7 22
-15 10 -13 15 -12 31 8 10 12 18 16 19 10 0 -7 -5 -13 -11 -13 -5 0 -7 -4 -4
-10 11 -18 -5 -32 -21 -19 -10 8 -18 9 -25 2 -7 -7 -2 -16 16 -27 14 -9 25
-13 24 -9 -4 22 3 24 21 8 11 -10 17 -21 15 -25 -3 -4 2 -13 9 -19 12 -10 14
-9 12 5 -3 21 28 54 50 54 14 0 14 -1 0 -16 -19 -19 -11 -40 9 -24 10 8 17 6
27 -9 8 -12 18 -18 23 -13 5 4 5 1 1 -5 -10 -17 -26 -16 -26 1 0 8 -4 18 -10
21 -6 4 -7 -2 -1 -17 10 -27 38 -31 63 -10 16 13 18 13 18 -1 0 -10 -6 -16
-12 -15 -9 2 -12 -7 -10 -26 3 -18 0 -26 -7 -22 -5 4 -8 13 -4 21 3 8 0 15 -5
15 -6 0 -9 -9 -7 -20 6 -30 15 -41 27 -34 7 4 8 2 4 -4 -11 -18 -22 -15 -53
17 -22 21 -29 25 -28 12 2 -24 15 -42 26 -35 6 3 9 0 8 -7 -2 -8 2 -24 9 -36
16 -28 -2 -31 -21 -3 -8 11 -17 17 -20 13 -4 -3 -7 -1 -7 6 0 7 -4 10 -9 6 -5
-3 -12 -1 -15 4 -4 5 -2 12 4 16 13 8 13 35 0 35 -5 0 -7 -6 -4 -14 9 -23 -14
-28 -26 -6 -6 11 -8 20 -4 20 3 0 1 7 -6 15 -7 8 -9 15 -4 15 12 1 -36 40 -48
40 -5 0 -6 -6 -1 -12 4 -7 6 -24 4 -37 -1 -13 1 -21 7 -17 6 3 27 -12 48 -34
21 -22 46 -43 57 -46 11 -3 16 -12 13 -20 -3 -8 -2 -12 3 -9 5 3 12 1 16 -5
11 -17 35 -11 35 9 0 27 23 44 40 28 8 -6 7 -3 -2 8 -9 11 -14 26 -10 32 4 7
15 -4 26 -28 14 -29 22 -36 31 -29 9 8 14 6 19 -5 3 -9 2 -14 -3 -10 -5 3 -12
-1 -15 -7 -3 -10 -8 -9 -18 3 -7 9 -23 19 -36 23 -22 7 -22 6 -10 -13 7 -11
20 -20 28 -18 10 1 14 -5 13 -18 -1 -11 0 -14 3 -7 8 18 24 15 24 -5 0 -15 2
-16 10 -3 7 12 9 10 7 -7 -1 -18 -4 -20 -20 -11 -14 7 -17 7 -13 -1 4 -6 2
-11 -3 -11 -6 0 -11 -11 -11 -25 0 -14 5 -25 11 -25 5 0 7 5 3 12 -4 6 -3 8 2
5 5 -3 21 -27 34 -54 22 -44 24 -58 22 -167 -1 -105 -4 -125 -26 -166 -14 -26
-22 -51 -18 -55 4 -5 2 -5 -5 -1 -7 4 -10 13 -7 21 6 15 -20 15 -33 0 -4 -4
-3 -5 3 -2 7 4 16 -5 23 -21 13 -34 26 -192 14 -192 -4 0 -8 -21 -8 -47 -1
-54 -11 -130 -21 -156 -6 -16 -11 -19 -44 -21 -11 -1 -18 -26 -28 -96 -8 -61
-23 -117 -42 -158 -24 -52 -28 -70 -23 -112 3 -28 10 -50 14 -50 5 0 6 14 2
31 l-6 30 38 -15 c21 -9 44 -21 52 -27 16 -14 17 -33 1 -23 -7 4 -8 3 -4 -5 4
-6 11 -9 16 -6 4 3 11 -3 15 -13 10 -23 32 -282 24 -282 -4 0 -9 51 -13 112
-9 144 -13 168 -32 161 -8 -3 -14 -15 -13 -27 0 -20 1 -20 9 -1 6 16 8 13 7
-15 0 -19 -2 -29 -4 -22 -3 6 -9 12 -14 12 -4 0 -5 -7 -2 -17 4 -10 2 -14 -4
-10 -9 6 -33 -32 -33 -54 0 -5 -18 -35 -39 -67 -22 -31 -49 -79 -61 -107 -36
-82 -57 -120 -67 -120 -5 0 -22 -14 -37 -30 -15 -17 -25 -24 -21 -17 8 16 0
15 -36 -3 -16 -9 -27 -20 -24 -26 4 -5 1 -8 -6 -7 -7 2 -13 -2 -14 -8 0 -7
-10 -20 -21 -30 -12 -11 -30 -31 -39 -46 -14 -23 -15 -28 -3 -28 15 0 48 30
48 44 0 4 -6 4 -12 0 -10 -5 -10 -4 -1 6 23 25 35 5 13 -23 -21 -26 -21 -27
-2 -24 11 2 28 9 39 17 16 14 17 14 4 -2 -12 -16 -11 -18 7 -18 14 0 20 7 20
25 0 36 6 39 38 18 25 -16 27 -16 22 -2 -5 13 -2 16 13 12 12 -4 19 -15 20
-32 1 -26 2 -25 9 4 l8 30 1 -27 c0 -16 6 -28 12 -28 7 0 9 10 5 25 -7 27 -6
27 37 30 20 1 27 -2 23 -11 -3 -8 -1 -14 4 -14 5 0 7 -7 4 -15 -5 -11 1 -15
20 -15 14 0 26 6 26 13 0 8 3 7 10 -3 5 -8 11 -12 13 -10 2 3 7 56 11 118 l7
112 -30 6 c-36 7 -32 23 11 49 38 22 90 22 140 -1 44 -20 51 -39 11 -30 -21 5
-24 4 -13 -4 11 -7 6 -10 -22 -10 -21 0 -38 -4 -38 -10 0 -17 -18 -11 -23 8
-3 16 -7 -13 -23 -180 -4 -39 -2 -58 5 -58 6 0 11 16 11 36 l0 36 48 -6 c26
-4 58 -8 72 -10 14 -1 31 -4 38 -4 7 -1 12 -8 11 -14 -3 -27 2 -36 19 -33 9 1
16 9 15 16 -2 11 7 14 37 11 25 -3 40 -9 40 -17 0 -8 9 -13 20 -12 25 2 26 14
3 20 -14 4 -12 5 5 6 13 1 22 -5 22 -14 0 -8 5 -15 11 -15 7 0 9 21 5 62 -13
143 -15 208 -7 208 4 0 12 -35 16 -77 13 -128 22 -199 23 -185 2 14 97 16 154
3 38 -9 38 -9 39 23 l2 31 6 -30 c6 -30 7 -30 82 -33 l77 -4 -9 44 c-4 23 -13
58 -18 76 -15 51 6 27 23 -26 8 -26 17 -56 20 -67 3 -11 4 0 2 25 -1 25 -6 54
-11 64 -6 14 -5 17 3 12 7 -4 12 -4 12 1 0 17 -93 65 -324 168 -285 126 -296
132 -296 148 0 6 -20 31 -44 54 -36 35 -47 53 -56 98 -14 66 -47 109 -98 126
-20 6 -40 14 -44 18 -4 3 4 30 18 59 28 58 54 166 54 225 0 30 4 37 20 37 53
0 72 70 76 286 2 101 6 132 27 191 27 75 40 230 27 319 -4 26 -3 48 4 55 8 9
7 10 -7 6 -15 -6 -16 -4 -7 13 9 16 7 24 -6 37 -15 15 -15 18 0 28 20 15 20
29 2 45 -8 6 -12 19 -9 28 4 15 3 15 -6 2 -7 -9 -11 -11 -11 -3 0 7 8 16 17
22 17 9 17 10 0 28 -9 11 -17 32 -17 48 0 39 -33 88 -80 119 -22 14 -40 23
-40 19 0 -4 -13 6 -30 22 -23 22 -30 25 -30 12 0 -9 -4 -17 -8 -17 -12 0 -71
29 -102 50 -14 9 -34 17 -45 17 -11 1 -40 9 -65 18 -25 9 -66 23 -92 30 -25 7
-55 18 -66 24 -18 10 -59 9 -194 -4 -50 -5 -74 -13 -95 -31 -15 -13 -40 -24
-55 -24 -15 0 -30 -5 -33 -10 -4 -6 -24 -19 -45 -30 -21 -11 -46 -33 -55 -48
-12 -20 -31 -32 -61 -40 -24 -7 -43 -15 -42 -19 4 -13 -24 -57 -49 -78 -12
-11 -23 -26 -23 -33 0 -15 -28 -59 -53 -85 -10 -10 -15 -22 -12 -28 4 -5 1
-16 -5 -24 -7 -8 -10 -21 -7 -29 4 -9 -1 -36 -10 -62 -13 -40 -14 -55 -4 -95
7 -27 12 -79 12 -116 -1 -60 23 -214 36 -236 3 -4 6 -65 8 -135 2 -125 24
-252 48 -280 7 -10 25 -13 52 -10 41 5 41 5 43 -31 4 -58 30 -158 52 -202 30
-57 28 -122 -4 -183 -14 -27 -26 -58 -26 -68 0 -11 -21 -44 -47 -75 -27 -30
-47 -59 -46 -64 2 -4 -3 -6 -10 -3 -7 2 -22 -4 -32 -16 -19 -21 -8 -29 13 -8
16 16 16 -4 0 -21 -10 -11 -10 -14 0 -18 6 -3 12 -9 12 -14 0 -6 -4 -8 -9 -4
-12 7 -24 -12 -16 -25 3 -6 17 1 32 16 14 14 32 23 40 20 9 -4 11 -2 7 6 -5 8
-2 9 9 5 10 -3 17 -2 17 4 0 6 5 7 10 4 6 -3 10 -13 10 -21 0 -8 -4 -13 -9 -9
-5 3 -13 0 -17 -6 -4 -8 -3 -9 4 -5 7 4 12 1 12 -8 0 -8 -8 -20 -17 -25 -10
-6 -12 -11 -5 -11 28 0 9 -28 -35 -50 -27 -13 -52 -25 -58 -25 -16 -1 -36 -16
-31 -24 3 -4 -7 -14 -22 -23 -28 -16 -66 -18 -79 -3 -5 4 -2 5 5 1 6 -4 12 -2
12 3 0 6 10 10 22 8 14 -1 23 4 23 13 1 8 6 14 13 12 7 -1 11 1 10 5 -2 5 1 9
6 10 5 0 13 8 18 17 5 9 15 13 21 10 7 -4 9 -4 5 1 -4 4 -3 14 4 22 8 11 8 17
-2 26 -8 7 -10 8 -7 1 4 -6 -2 -19 -13 -29 -20 -18 -20 -17 -18 41 l1 59 7
-50 c8 -60 11 -57 13 13 2 43 -1 51 -13 46 -8 -3 -20 -7 -26 -8 -5 -1 -23 -11
-38 -23 -15 -12 -36 -25 -47 -28 -10 -4 -19 -11 -19 -16 0 -5 -6 -9 -14 -9 -7
0 -30 -11 -50 -25 -20 -14 -44 -25 -52 -25 -9 0 -12 -5 -8 -12 4 -7 3 -8 -4
-4 -12 7 -86 -26 -97 -43 -3 -5 -18 -16 -33 -24 -53 -27 -107 -60 -132 -79
l-25 -20 -5 1229 -5 1228 -1 -1255z m802 -1006 c-3 -9 -6 -20 -6 -25 0 -6 -5
-7 -11 -4 -6 4 -8 13 -5 20 4 12 -1 12 -33 6 -2 -1 2 -8 10 -17 10 -12 10 -17
0 -23 -10 -6 -9 -10 4 -14 9 -4 13 -3 10 3 -3 6 -1 10 4 10 19 0 12 -17 -15
-35 -24 -15 -25 -21 -20 -63 4 -32 3 -41 -3 -27 -13 28 -13 69 -1 81 7 7 6 11
-5 11 -8 0 -15 -6 -15 -14 0 -17 -39 -17 -46 1 -4 10 -16 11 -56 4 -27 -5 -52
-7 -55 -5 -9 10 70 61 130 83 75 28 122 31 113 8z m1406 -70 c38 -5 48 -10 51
-27 4 -18 5 -17 6 5 0 17 6 26 14 23 6 -2 31 -9 55 -15 23 -6 40 -15 37 -20
-3 -6 1 -7 10 -3 17 6 35 -11 35 -35 0 -11 -14 -12 -64 -7 -57 6 -65 5 -69
-11 -3 -13 -5 -10 -6 9 0 16 3 26 8 23 4 -3 6 7 3 22 l-6 27 -8 -32 c-10 -38
-14 -39 -40 -16 -17 15 -18 15 -13 1 6 -14 1 -15 -36 -7 -24 6 -48 14 -55 19
-6 6 -14 7 -18 3 -8 -8 -26 15 -26 34 0 13 42 16 122 7z"/>
<path d="M1048 1513 c-10 -3 -15 -10 -11 -19 9 -23 -17 -44 -54 -44 -19 0 -32
4 -29 8 3 5 -20 10 -51 11 -31 1 -63 7 -72 14 -12 9 -13 9 -7 -1 9 -15 -10
-23 -66 -26 -24 -1 -48 -5 -55 -9 -6 -4 -17 -2 -25 5 -7 7 -23 14 -35 16 -20
3 -23 -1 -23 -30 0 -19 7 -44 16 -56 13 -19 13 -26 3 -38 -10 -12 -10 -26 -1
-62 6 -26 16 -73 22 -105 15 -78 25 -65 12 15 -15 95 -16 181 -1 176 7 -2 18
-25 26 -50 14 -49 52 -88 84 -88 11 0 19 -3 19 -7 0 -9 148 -8 226 2 37 4 63
14 77 28 12 12 26 21 30 19 5 -1 6 2 2 8 -3 5 3 30 14 55 16 35 25 45 44 45
20 0 30 -12 58 -67 28 -57 40 -70 69 -79 42 -14 220 -23 220 -12 0 4 15 8 33
8 56 0 93 32 114 96 l18 57 7 -34 c8 -40 0 -129 -14 -146 -9 -12 8 -30 19 -19
3 3 8 39 11 81 3 52 9 75 17 75 8 0 16 -6 18 -12 4 -8 6 -7 6 3 1 9 -9 19 -20
22 -17 5 -20 10 -14 29 18 57 17 79 -1 93 -10 7 -22 11 -26 9 -5 -3 -9 5 -9
18 -1 15 -4 11 -8 -12 -5 -27 -11 -35 -26 -33 -11 1 -60 7 -110 12 -59 7 -91
7 -93 1 -5 -13 -32 -13 -32 0 0 6 -5 10 -11 10 -5 0 -8 -4 -4 -9 13 -22 -93
-34 -129 -16 -36 19 -56 19 -30 0 22 -16 22 -16 -58 -19 -45 -2 -98 13 -98 27
0 4 5 5 12 1 7 -4 8 -3 4 5 -4 6 -12 9 -17 6 -5 -4 -9 0 -9 8 0 19 -21 34 -42
30z m569 -86 c25 1 30 -8 39 -77 5 -36 3 -50 -5 -50 -7 0 -10 -4 -7 -9 7 -11
-12 -26 -44 -35 -57 -14 -217 -19 -253 -6 -38 12 -69 53 -59 79 2 8 0 11 -5 8
-6 -4 -10 8 -9 31 2 28 8 40 27 49 28 15 53 17 45 4 -4 -5 4 -7 16 -4 21 4 21
3 -4 -17 -41 -32 -36 -50 11 -50 22 0 52 -5 67 -10 16 -6 30 -7 33 -2 3 5 14
8 24 6 9 -1 17 2 17 7 0 6 4 8 10 4 5 -3 16 8 24 24 14 26 14 30 -1 36 -15 5
-15 7 -3 15 8 5 24 7 35 3 11 -4 30 -7 42 -6z m-775 -18 c-21 -16 -21 -17 -2
-22 12 -3 18 -1 14 5 -4 6 0 14 7 19 24 15 29 10 19 -17 -6 -14 -6 -23 -1 -20
5 3 14 -1 21 -9 15 -18 10 -18 -24 -5 -14 5 -28 5 -31 1 -8 -14 21 -32 39 -25
9 3 16 1 16 -6 0 -6 5 -8 13 -3 14 9 17 9 94 17 33 3 52 2 45 -3 -11 -7 -11
-9 0 -14 27 -10 15 25 -20 59 l-34 33 26 7 c14 3 34 3 43 -2 10 -4 21 -8 26
-8 4 -1 7 -3 6 -6 0 -3 4 -17 10 -32 6 -16 7 -28 2 -28 -5 0 -7 -9 -4 -19 7
-28 -14 -61 -50 -76 -45 -18 -220 -18 -278 1 -36 12 -46 20 -46 37 0 12 -3 30
-7 40 -5 9 -5 29 -1 45 4 15 6 29 5 32 -3 10 38 19 84 18 47 -2 48 -2 28 -19z"/>
</g>
</svg>
