<?xml version="1.0" standalone="no"?>
<!DOCTYPE svg PUBLIC "-//W3C//DTD SVG 20010904//EN"
 "http://www.w3.org/TR/2001/REC-SVG-20010904/DTD/svg10.dtd">
<svg version="1.0" xmlns="http://www.w3.org/2000/svg"
 width="684.000000pt" height="900.000000pt" viewBox="0 0 684.000000 900.000000"
 preserveAspectRatio="xMidYMid meet">
<metadata>
Created by potrace 1.15, written by Peter Selinger 2001-2017
</metadata>
<g transform="translate(0.000000,900.000000) scale(0.100000,-0.100000)"
fill="#000000" stroke="none">
<path d="M60 8939 c0 -5 -3 -8 -7 -6 -5 3 -6 -1994 -3 -4436 l5 -4442 338 -3
c301 -2 338 -1 344 14 5 13 7 13 14 2 14 -21 11 19 -3 45 -16 31 -20 148 -5
166 9 12 9 13 -1 7 -6 -4 -12 -2 -12 3 0 21 -20 10 -26 -14 -3 -14 -9 -25 -13
-25 -4 0 -6 -17 -4 -38 2 -31 0 -29 -12 17 -17 66 -33 309 -40 581 -5 216 -5
220 -30 431 -9 74 -18 159 -21 189 -3 30 -13 123 -24 205 -15 122 -33 342 -33
415 0 8 3 101 7 205 8 189 8 190 34 212 15 12 24 22 20 23 -13 0 76 77 109 94
18 9 40 16 50 16 30 0 162 68 227 116 74 56 114 77 230 120 49 18 116 50 148
70 33 20 61 34 64 31 10 -10 -79 -86 -134 -115 -32 -17 -81 -34 -109 -38 -43
-5 -65 -16 -120 -60 -65 -52 -226 -140 -250 -138 -7 1 -11 -2 -8 -6 3 -4 -13
-12 -35 -18 -22 -5 -37 -6 -34 -1 3 5 -2 9 -10 9 -9 0 -16 -5 -16 -12 0 -6 -3
-9 -6 -6 -3 3 -16 -4 -29 -16 l-24 -22 3 -344 c3 -307 6 -367 30 -545 15 -110
29 -227 32 -260 3 -33 9 -104 15 -159 12 -131 12 -343 -1 -386 -14 -44 -13
-285 0 -365 6 -33 12 -69 13 -80 1 -11 5 -22 8 -25 14 -12 61 -177 64 -225 1
-29 6 -58 9 -64 5 -8 364 -11 1287 -11 705 0 1285 -2 1290 -5 5 -4 9 -3 9 2 0
4 246 8 548 9 301 0 562 3 579 7 18 4 44 2 58 -3 15 -6 222 -10 508 -9 265 0
710 0 990 -1 l507 -1 0 23 c0 19 2 20 10 8 6 -9 10 -10 10 -3 0 6 -4 15 -10
18 -13 8 -13 111 -1 207 10 73 14 242 29 1003 9 515 8 795 -5 870 -6 33 -24
113 -42 177 -17 64 -31 128 -31 141 0 14 -10 31 -22 41 -57 41 -59 45 -9 19
90 -47 111 -75 155 -207 64 -198 67 -218 65 -546 0 -162 -2 -315 -4 -340 -2
-25 -4 -112 -6 -195 -2 -93 -5 -135 -9 -110 l-7 40 -3 -35 c-6 -71 -9 -226 -4
-243 3 -9 9 -15 13 -13 4 3 8 -8 8 -24 0 -17 -2 -28 -5 -26 -2 3 -10 -1 -17
-7 -9 -9 -10 -18 -2 -35 8 -17 8 -29 -1 -43 -14 -21 -6 -89 9 -89 18 0 8 -28
-11 -33 -16 -4 -20 -14 -20 -50 0 -25 -5 -49 -10 -52 -8 -5 -7 -11 1 -21 6 -8
9 -17 5 -21 -3 -3 -6 0 -6 7 0 11 -3 11 -12 2 -10 -10 -10 -15 2 -22 8 -5 15
-19 15 -31 0 -12 5 -24 10 -26 7 -2 9 13 7 39 -3 24 -1 40 3 36 17 -16 5 -238
-19 -369 -7 -36 -10 -71 -8 -77 2 -7 18 -12 36 -12 40 0 59 30 75 115 9 44 11
1196 9 4420 l-3 4360 -3362 3 c-2365 1 -3363 -1 -3363 -9z m3362 -183 c45 -18
112 -39 148 -45 36 -7 109 -32 162 -57 54 -24 104 -44 112 -44 8 0 25 -4 38
-9 13 -5 41 -14 63 -20 22 -6 49 -18 60 -27 18 -14 18 -15 2 -10 -10 3 -15 2
-12 -3 3 -6 13 -9 23 -8 23 1 70 -31 77 -54 4 -10 11 -19 17 -19 6 0 9 -3 5
-6 -3 -3 -2 -17 3 -30 9 -23 8 -24 -13 -13 -12 7 -57 40 -100 75 -63 51 -86
64 -113 64 -19 0 -34 -4 -34 -10 0 -28 -59 -7 -185 67 -85 49 -101 54 -144 45
l-34 -7 42 -28 c56 -37 52 -41 -12 -9 -29 15 -64 32 -78 38 -13 6 -56 29 -96
51 -39 23 -89 45 -110 51 -21 5 -30 10 -19 11 12 1 16 6 12 16 -11 29 93 19
186 -19z m-346 5 c-14 -5 -4 -11 40 -20 33 -8 82 -25 109 -40 47 -24 48 -26
23 -29 -28 -3 -40 -22 -15 -22 20 0 67 -24 67 -34 0 -8 -55 -1 -86 11 -8 3
-14 0 -14 -6 0 -6 -9 -11 -20 -11 -30 0 -92 28 -86 39 10 16 -32 57 -74 71
-23 8 -44 19 -47 26 -3 7 -11 10 -18 8 -7 -3 -16 -1 -20 5 -4 8 20 11 77 10
47 0 75 -4 64 -8z m-189 -11 c25 0 31 -4 27 -15 -4 -8 -1 -15 5 -15 6 0 30
-18 54 -39 23 -21 58 -46 77 -54 46 -20 24 -21 -31 -2 -38 14 -42 14 -29 1 8
-8 29 -22 45 -30 l30 -16 -42 0 c-23 0 -44 -3 -47 -8 -2 -4 -43 -5 -90 -2 -64
5 -93 11 -114 27 -27 20 -132 38 -132 22 0 -5 32 -25 70 -44 72 -36 89 -52 44
-41 -14 4 -76 9 -138 11 -101 4 -117 2 -171 -20 -33 -13 -76 -39 -95 -58 -19
-18 -54 -41 -77 -52 -46 -19 -55 -39 -24 -48 12 -3 27 3 38 15 10 12 41 38 69
59 44 32 57 37 87 32 19 -3 43 0 53 6 11 6 13 11 7 11 -17 0 -17 20 0 20 8 0
36 -11 63 -25 27 -14 56 -25 65 -25 10 0 45 -14 79 -31 69 -34 219 -84 283
-94 l42 -6 -44 25 c-23 14 -48 26 -55 26 -13 0 -208 64 -241 79 -11 5 -33 14
-50 19 -21 7 -24 11 -10 11 11 0 38 -7 60 -15 82 -31 208 -65 229 -62 22 3
-102 60 -159 73 -52 11 -2 28 60 20 30 -3 62 -2 72 3 10 5 69 6 138 2 91 -6
133 -13 173 -30 29 -13 51 -28 49 -34 -4 -12 1 -19 58 -80 58 -63 105 -131
114 -162 5 -19 16 -30 34 -35 38 -10 75 -42 115 -99 19 -28 40 -50 46 -50 7 0
7 3 1 8 -14 10 -57 103 -51 109 3 3 12 -2 21 -11 19 -19 26 -20 22 -4 -2 11
-78 82 -129 121 -17 13 -12 12 22 -4 59 -28 87 -50 176 -133 78 -73 106 -82
59 -19 -20 25 -24 35 -12 30 9 -3 17 -2 17 2 0 5 24 3 53 -5 59 -16 103 -18
111 -6 3 5 -20 30 -51 55 -30 26 -52 47 -48 47 11 0 49 -22 78 -46 32 -27 87
-33 87 -10 0 8 5 16 12 18 19 7 -1 59 -36 92 -36 34 -119 106 -151 131 -12 9
-2 7 25 -6 25 -12 57 -33 73 -47 15 -14 27 -20 27 -14 0 7 5 12 12 12 6 0 8
-3 5 -6 -4 -4 10 -20 31 -36 20 -16 44 -34 52 -41 9 -7 33 -25 55 -41 22 -17
44 -36 48 -43 4 -7 12 -13 18 -13 13 0 -13 39 -31 45 -8 3 -23 17 -34 31 l-19
26 33 -7 c27 -6 32 -4 27 8 -4 11 2 14 25 12 21 -2 47 -19 92 -64 63 -63 86
-74 86 -43 0 35 -21 92 -39 104 -11 8 -29 31 -42 53 l-22 40 34 -31 c19 -17
49 -40 67 -50 17 -10 32 -22 32 -26 0 -4 6 -5 14 -2 7 3 21 -2 30 -11 9 -9 16
-12 16 -6 0 20 36 11 59 -13 13 -13 32 -26 43 -29 17 -5 19 -2 15 19 -5 27 8
33 15 7 7 -26 -3 -93 -13 -93 -5 0 -9 6 -9 13 0 7 -12 18 -27 25 -43 20 -97
50 -111 62 -24 22 -23 3 2 -36 69 -105 80 -114 56 -47 -8 24 -3 21 32 -19 39
-45 46 -64 49 -135 1 -16 7 -23 20 -23 25 0 32 20 19 54 -6 17 -6 25 0 21 6
-3 10 -2 10 4 0 5 -5 11 -12 13 -7 3 5 20 27 40 l39 35 -18 55 c-11 37 -30 68
-56 93 -22 22 -40 44 -40 50 0 7 3 7 8 0 4 -6 33 -24 65 -39 64 -31 97 -62
164 -153 24 -35 47 -63 49 -63 16 0 -74 154 -100 172 -7 5 -5 8 4 8 25 0 85
-68 124 -141 27 -48 39 -86 46 -142 11 -87 3 -337 -11 -352 -14 -14 -11 -43 6
-52 11 -6 13 -19 8 -46 l-6 -38 -23 22 c-19 17 -35 22 -84 21 -33 0 -60 4 -60
8 0 5 -13 11 -30 15 -16 4 -34 13 -38 21 -4 8 -28 18 -52 22 -40 7 -49 14 -77
57 -47 71 -41 77 20 17 29 -29 61 -52 70 -52 16 0 65 -26 77 -41 10 -12 49
-29 67 -29 15 0 14 3 -5 13 -13 6 -30 23 -37 37 -31 58 -49 106 -47 128 1 17
-16 40 -65 85 -76 70 -124 118 -203 203 -50 54 -136 110 -197 128 -19 6 -21 3
-21 -31 0 -21 -3 -51 -7 -66 -7 -26 -2 -35 47 -85 30 -32 65 -72 77 -89 12
-18 43 -47 67 -64 31 -21 53 -47 70 -83 34 -73 100 -136 149 -142 81 -10 102
-44 28 -44 -49 0 -60 5 -158 74 -74 52 -90 45 -33 -14 26 -27 48 -54 48 -60 0
-21 -115 11 -180 51 -58 35 -108 46 -116 26 -4 -13 -13 -13 -57 -2 -75 19
-177 28 -177 16 0 -5 26 -12 58 -16 66 -7 155 -36 227 -74 l50 -26 -37 -3
c-50 -4 -48 -18 3 -26 23 -4 87 -25 141 -48 94 -39 101 -40 138 -28 35 12 58
10 107 -6 11 -4 6 5 -14 25 -18 18 -33 42 -33 55 0 21 4 23 62 23 87 1 92 -4
106 -127 7 -63 34 -122 46 -102 3 5 0 25 -6 44 -6 20 -8 55 -4 80 5 35 13 48
38 63 l31 18 23 -29 c13 -16 30 -37 39 -46 25 -30 -2 -20 -35 12 -34 33 -32
32 -54 24 -26 -10 -18 -40 24 -89 22 -26 47 -62 55 -81 8 -19 21 -41 29 -49
18 -18 56 -136 54 -167 0 -13 4 -41 10 -62 8 -28 8 -69 1 -145 -6 -58 -11
-171 -13 -251 -3 -156 -7 -175 -86 -375 -18 -44 -40 -104 -49 -133 -10 -29
-22 -57 -28 -63 -6 -6 -10 -25 -8 -43 1 -17 1 -22 -2 -11 -5 26 -53 51 -53 28
0 -9 -14 12 -32 46 -17 33 -38 61 -45 61 -8 0 -24 -12 -36 -26 l-23 -26 3 84
c3 106 -12 271 -39 417 -15 85 -18 122 -11 141 13 36 5 117 -22 216 -15 55
-19 87 -13 98 5 9 8 30 6 47 -3 29 -6 32 -43 34 -22 1 -52 -3 -66 -11 -15 -7
-28 -12 -30 -10 -2 2 -21 6 -42 9 -31 5 -38 3 -33 -8 5 -13 0 -13 -32 1 -20 9
-59 23 -87 31 -102 31 -168 81 -72 55 20 -6 40 -6 48 -1 8 5 34 9 59 9 33 0
41 3 30 10 -8 5 -25 10 -38 10 -28 0 -204 48 -215 59 -4 4 27 6 68 6 41 -1 75
0 75 2 0 13 -121 56 -191 68 -45 8 -90 22 -100 30 -24 22 -100 44 -173 50 -50
4 -66 2 -91 -14 l-29 -20 42 -7 c60 -9 52 -24 -12 -24 -65 0 -82 -15 -27 -23
32 -4 181 -81 181 -93 0 -2 -19 3 -41 11 -38 14 -40 13 -28 -1 7 -8 29 -24 48
-35 28 -15 31 -18 11 -13 -21 4 -29 0 -40 -21 -16 -29 -77 -65 -111 -65 -12 0
-40 -5 -63 -11 -22 -6 -57 -14 -75 -19 -48 -13 -52 -4 -8 15 41 17 59 38 31
35 -34 -4 -38 0 -18 15 19 14 18 14 -3 15 -13 0 -23 4 -23 9 0 11 -68 3 -90
-11 -10 -6 -7 -7 10 -2 58 15 -2 -16 -105 -55 -123 -46 -165 -53 -93 -17 25
14 69 40 96 59 38 26 65 36 113 41 42 5 72 15 94 32 18 13 38 24 46 24 12 0
12 2 0 9 -8 6 -48 8 -89 6 -62 -4 -72 -2 -62 9 9 12 2 16 -44 21 -41 5 -53 11
-49 21 4 11 -5 14 -37 14 -30 0 -65 -13 -127 -45 -47 -25 -88 -44 -90 -41 -2
2 1 13 8 25 19 29 5 36 -36 16 -32 -15 -38 -15 -48 -2 -10 13 -67 30 -67 21 0
-2 16 -10 35 -18 42 -18 47 -39 8 -30 -38 9 -173 64 -200 82 -26 16 -68 80
-59 89 3 3 22 -9 42 -27 33 -29 90 -60 110 -60 4 0 -11 13 -32 29 -21 16 -61
52 -89 80 -27 28 -55 51 -62 51 -6 0 -15 4 -18 10 -17 27 81 -28 135 -75 26
-23 117 -45 105 -25 -3 5 -12 10 -19 10 -7 0 -49 27 -92 61 -44 34 -116 79
-162 100 -46 21 -96 49 -111 61 -15 13 -43 34 -61 48 -18 14 -52 44 -76 68
-23 23 -47 42 -53 42 -7 0 -26 13 -44 30 -17 16 -33 28 -34 26 -2 -2 8 -23 22
-47 13 -24 25 -55 25 -69 1 -62 27 -113 81 -162 59 -53 60 -60 2 -26 -21 13
-51 30 -68 38 -17 9 -44 39 -64 73 -46 78 -50 66 -6 -17 43 -82 46 -108 4 -44
-38 58 -86 77 -125 51 -19 -12 -22 -19 -13 -29 13 -16 -18 -93 -39 -94 -10 0
-9 -7 3 -30 20 -38 19 -43 -6 -37 -15 4 -23 -1 -31 -19 -6 -13 -17 -24 -25
-24 -7 0 -13 -3 -13 -8 0 -9 57 -73 65 -72 37 2 45 -3 16 -10 -37 -9 -64 -3
-55 11 3 5 -2 9 -10 9 -9 0 -24 8 -34 18 -20 20 -89 62 -102 62 -12 0 0 -103
14 -112 6 -4 11 -38 11 -75 1 -61 5 -74 35 -119 70 -101 104 -144 117 -144 7
0 20 -11 29 -25 9 -14 20 -22 25 -19 14 8 10 -29 -5 -52 -8 -11 -25 -53 -39
-94 -14 -41 -39 -101 -56 -134 -19 -35 -31 -73 -31 -95 0 -21 -9 -64 -19 -97
-20 -60 -37 -169 -47 -307 -3 -42 -10 -75 -15 -71 -13 8 -11 -10 3 -25 11 -10
9 -11 -7 -5 -11 4 -34 16 -52 26 -31 19 -31 19 -38 -2 -8 -24 1 -109 16 -157
6 -18 21 -40 34 -50 23 -18 23 -18 16 -193 l-6 -175 -19 40 c-16 33 -19 60
-18 147 l2 108 -65 51 c-35 28 -70 65 -79 82 l-14 30 -6 -44 c-4 -24 -5 -107
-4 -184 1 -77 1 -174 -1 -217 -3 -72 -1 -80 38 -159 39 -80 51 -132 32 -143
-11 -7 -20 -76 -9 -76 4 0 8 -14 8 -30 0 -17 6 -33 14 -36 8 -3 18 -19 21 -35
4 -16 13 -29 20 -29 9 0 12 -6 8 -17 -4 -11 -3 -14 5 -9 7 4 12 3 12 -2 0 -19
48 -22 94 -6 58 20 70 13 19 -11 -70 -34 -150 -15 -195 45 -11 15 -25 62 -33
112 -7 47 -25 128 -39 179 -26 92 -47 296 -27 254 7 -14 10 36 10 155 0 96 2
204 4 239 4 65 3 71 -51 206 -20 51 -62 253 -60 290 0 11 -5 52 -11 90 -7 39
-12 115 -11 170 1 55 -2 137 -6 183 -5 61 -3 90 6 108 12 22 33 34 28 17 -1
-5 4 -25 11 -46 7 -21 10 -49 7 -62 -3 -12 1 -36 9 -51 15 -29 15 -29 9 15 -5
32 -4 42 5 37 7 -5 17 5 25 26 18 41 5 68 -30 68 -14 0 -23 4 -20 8 3 5 -4 19
-15 31 -14 15 -18 27 -13 39 5 9 9 35 9 57 0 32 5 42 23 50 26 11 28 21 7 29
-8 3 -16 0 -16 -7 -1 -7 -5 8 -9 33 -4 25 -3 53 2 62 4 10 6 30 2 45 -3 16 -2
23 3 16 13 -19 61 -27 78 -13 19 16 19 43 1 78 -12 24 -12 32 5 66 10 22 18
40 16 42 -16 15 -87 -1 -87 -20 0 -9 7 -12 20 -9 14 4 20 0 20 -11 0 -9 -8
-16 -17 -16 -15 0 -15 -2 -4 -9 17 -11 7 -41 -14 -41 -14 0 -20 13 -15 35 5
22 0 76 -9 94 -10 18 7 55 33 74 8 5 7 10 -2 15 -19 13 2 60 40 92 17 13 40
45 52 70 28 58 59 110 67 110 3 0 4 -14 1 -30 -2 -17 -7 -28 -10 -26 -6 7 -21
-14 -57 -79 -15 -27 -36 -58 -47 -67 -11 -10 -21 -32 -22 -50 -2 -18 -4 -41
-5 -51 0 -10 -5 -16 -10 -12 -6 3 -9 -3 -9 -12 0 -10 -3 -27 -7 -38 -7 -19 -7
-19 9 -4 14 13 26 15 59 7 54 -12 71 -5 64 29 -5 29 25 73 38 54 12 -21 25
-11 25 21 0 22 -9 39 -32 59 l-31 29 18 35 c11 19 22 31 25 27 7 -10 82 -44
86 -39 2 2 -7 25 -21 51 -14 26 -25 52 -25 59 1 19 39 -34 66 -90 14 -29 28
-53 30 -53 3 0 12 7 20 15 13 12 13 22 5 48 -11 32 -11 137 0 137 3 0 1 27 -5
60 -5 33 -12 60 -16 60 -3 0 -13 -18 -22 -40 -13 -28 -16 -53 -11 -85 7 -54 0
-57 -25 -9 -18 35 -20 36 -33 17 -25 -35 -36 -34 -37 3 -1 29 2 35 15 30 13
-5 14 -4 4 8 -7 8 -8 16 -4 18 4 1 26 26 48 53 22 28 60 71 85 97 l46 46 12
-44 c7 -24 12 -55 12 -67 0 -13 13 -38 30 -57 l29 -35 1 28 c0 16 12 44 27 64
l27 36 -42 36 c-23 20 -42 44 -42 54 0 20 -12 21 -43 6 -20 -9 -20 -9 2 11 13
11 31 18 41 15 11 -3 17 0 17 10 0 8 -5 15 -11 15 -23 1 60 39 86 40 17 0 34
9 45 26 69 97 131 158 188 184 33 15 71 40 85 55 34 36 84 61 145 70 28 4 65
13 84 21 19 8 37 11 40 6 3 -4 20 -5 36 -1 17 4 24 7 18 8 -15 1 -18 31 -4 31
5 0 26 16 47 36 35 35 39 36 88 30 28 -3 65 -6 83 -6z m453 -210 c0 -5 8 -10
17 -10 9 0 24 -6 32 -14 18 -15 190 -116 198 -116 3 0 22 -13 43 -30 21 -16
41 -30 45 -30 11 0 95 -63 91 -68 -5 -5 -130 63 -165 90 -13 10 -28 18 -34 18
-6 0 -2 -7 9 -15 24 -18 7 -19 -26 0 -14 8 -37 14 -51 15 -15 0 -53 19 -85 43
-33 23 -79 56 -103 72 -44 29 -44 30 -18 33 15 2 25 8 22 13 -4 5 1 9 9 9 9 0
16 -4 16 -10z m-890 -1160 c22 -11 48 -20 58 -20 20 0 108 -56 152 -97 22 -21
23 -23 5 -23 -14 0 -16 -3 -7 -12 8 -8 15 -8 24 0 8 6 19 7 27 2 10 -6 4 -13
-25 -27 -31 -16 -47 -18 -79 -11 -22 5 -57 9 -79 8 -45 -1 -106 17 -106 32 0
6 -11 8 -26 4 -14 -4 -32 -2 -39 4 -7 6 -17 10 -21 9 -5 -1 -16 0 -24 2 -8 1
17 5 55 9 68 5 69 6 40 18 -16 7 -48 28 -70 46 -22 18 -51 38 -63 45 -13 7
-22 15 -19 17 8 8 67 -22 118 -59 26 -19 70 -41 97 -50 62 -21 68 -21 52 -2
-7 8 -18 15 -25 15 -14 0 -95 85 -95 100 0 14 5 13 50 -10z m-210 -189 c0 -9
-85 -44 -113 -47 -61 -6 -104 -19 -121 -36 -24 -26 -14 -34 18 -13 24 16 26
16 26 1 0 -9 -4 -16 -10 -16 -5 0 -10 -4 -10 -10 0 -5 9 -10 20 -10 25 0 26
-16 1 -30 -27 -14 -97 2 -94 21 10 64 21 84 66 115 44 31 52 33 132 32 47 0
85 -4 85 -7z m750 -121 c-14 -11 -28 -20 -32 -20 -5 0 -8 -5 -8 -11 0 -7 11
-9 30 -5 l30 6 -20 -28 c-11 -15 -45 -49 -76 -77 -56 -49 -85 -94 -98 -150
l-7 -30 18 26 c10 14 36 41 58 60 22 19 42 36 45 39 24 24 157 100 175 100 6
0 37 16 69 35 31 19 74 37 94 41 27 5 3 -11 -83 -56 -204 -107 -319 -190 -366
-267 -12 -19 -25 -31 -30 -26 -10 10 23 124 45 158 23 35 20 37 -16 15 -35
-21 -68 -26 -68 -11 0 30 148 169 208 198 59 27 63 27 32 3z m1102 -863 c31
-23 115 -39 140 -26 27 15 100 10 151 -9 67 -26 81 -42 25 -31 -89 19 -114 21
-163 11 -165 -33 -263 -56 -285 -67 -46 -24 -227 -45 -215 -25 3 5 12 7 20 3
8 -3 15 0 15 6 0 6 -9 11 -19 11 -27 0 -30 10 -15 46 22 54 64 81 139 89 37 4
69 4 72 1 4 -3 -1 -6 -10 -6 -9 0 -17 -5 -17 -11 0 -6 7 -8 16 -5 9 3 25 6 37
6 21 1 21 1 3 15 -17 13 -15 14 30 13 32 0 58 -8 76 -21z m-1517 -41 c64 -17
157 -61 148 -70 -3 -3 8 -6 26 -6 24 0 32 -4 28 -14 -4 -10 8 -15 44 -20 29
-4 48 -11 46 -18 -1 -6 25 -19 59 -28 34 -9 77 -24 95 -32 19 -9 50 -16 70
-16 21 0 47 -3 60 -7 22 -7 23 -7 9 11 -12 15 -10 15 13 -3 36 -28 141 -30
164 -4 12 14 27 17 76 14 45 -3 77 1 117 16 30 11 73 27 96 35 55 20 368 30
545 17 179 -13 399 -42 393 -52 -2 -5 9 -3 26 3 17 5 34 7 38 3 4 -4 7 -30 6
-58 -1 -66 -94 -355 -126 -392 -27 -31 -82 -61 -149 -81 -188 -56 -652 -59
-774 -5 -72 32 -123 108 -195 289 -38 97 -64 122 -126 122 -57 0 -97 -34 -120
-103 -28 -88 -90 -212 -126 -252 -48 -55 -94 -72 -258 -91 -263 -30 -570 -5
-690 56 -59 30 -87 74 -127 200 -29 92 -43 121 -70 147 -27 26 -35 43 -40 82
-5 47 -4 51 20 60 14 6 41 7 60 4 19 -3 59 0 88 6 163 35 585 67 759 56 65 -4
78 -3 55 5 -16 6 -120 13 -230 17 -117 5 -183 10 -160 14 27 4 6 7 -65 8 -79
2 -99 5 -81 12 13 5 32 7 41 4 10 -3 30 -1 46 6 16 6 55 11 87 11 46 0 57 3
57 17 0 10 -3 12 -8 5 -8 -13 -75 -6 -67 6 3 5 -5 12 -17 16 -22 7 -22 7 -3
15 32 12 106 10 160 -5z m2270 -598 c-4 -68 -16 -157 -27 -198 -11 -41 -21
-113 -23 -160 -4 -119 -28 -170 -97 -206 -32 -17 -82 -19 -73 -3 4 6 14 8 22
5 20 -8 85 32 77 46 -5 7 -2 8 6 3 9 -5 10 -2 5 14 -3 12 1 44 10 72 16 47 16
53 0 95 -20 52 -15 85 25 165 16 30 31 72 35 92 4 20 11 35 15 32 5 -3 11 33
15 80 11 129 19 101 10 -37z m-295 -372 c0 -8 5 -16 11 -18 8 -3 8 -15 -1 -43
-35 -118 -38 -148 -17 -210 10 -33 24 -63 29 -66 20 -13 -14 -259 -54 -394
-40 -135 -123 -299 -138 -275 -4 7 -11 11 -16 11 -15 -1 -24 49 -17 96 4 29 9
41 16 34 13 -13 37 11 37 39 0 28 -24 52 -37 39 -7 -7 -14 4 -21 33 -6 24 -23
56 -36 72 -27 30 -26 37 7 73 26 30 48 112 35 136 -7 13 -5 29 7 54 9 19 14
45 11 57 -3 13 4 38 19 65 14 23 31 68 39 98 8 30 21 62 28 71 7 10 22 35 33
57 11 22 26 46 32 53 7 7 13 18 13 23 0 5 5 9 10 9 6 0 10 -6 10 -14z m-2544
-52 c-3 -9 0 -11 11 -7 13 5 15 2 11 -15 -4 -14 0 -27 10 -35 10 -6 18 -19 20
-27 2 -8 8 -16 13 -18 5 -2 9 -10 9 -18 0 -8 18 -31 39 -52 22 -21 42 -52 45
-68 l6 -29 -12 26 c-16 31 -47 63 -54 56 -4 -3 6 -18 20 -34 14 -15 35 -47 46
-70 11 -24 25 -43 30 -43 6 0 18 -17 27 -37 31 -71 78 -168 84 -173 3 -3 9
-13 12 -24 6 -15 3 -17 -13 -13 -16 4 -20 0 -20 -19 0 -13 9 -29 20 -36 30
-19 24 -36 -11 -34 -19 1 -39 12 -51 26 -10 12 -20 21 -21 19 -2 -2 2 -35 9
-74 6 -38 12 -60 13 -47 1 16 7 22 25 22 13 0 29 7 36 15 17 20 27 19 33 -6 4
-15 -1 -22 -18 -29 -13 -5 -27 -19 -31 -32 -4 -13 -14 -28 -22 -34 -11 -8 -12
-15 -3 -32 6 -11 11 -30 11 -41 0 -11 17 -34 41 -53 22 -18 59 -59 81 -93 23
-33 44 -62 48 -65 3 -3 12 -19 18 -35 18 -44 50 -78 128 -136 37 -27 75 -59
84 -71 78 -106 275 -209 455 -239 33 -5 96 -16 140 -24 155 -27 255 -17 375
41 41 20 102 49 136 65 64 31 183 126 244 194 92 104 106 115 148 119 30 3 42
0 42 -9 0 -14 -259 -262 -321 -308 -22 -16 -53 -49 -70 -73 -16 -24 -34 -44
-39 -44 -5 0 -22 -11 -38 -25 -26 -22 -80 -45 -207 -90 -165 -57 -301 -69
-419 -34 -98 28 -236 81 -236 90 0 3 27 -4 60 -18 69 -27 179 -43 146 -21 -10
7 -33 25 -52 39 -18 15 -46 31 -61 37 -199 74 -202 75 -265 133 -29 27 -56 49
-59 49 -3 0 -15 8 -27 18 -11 9 -50 40 -86 67 -36 28 -97 76 -136 107 -39 32
-83 64 -99 73 -16 8 -41 29 -55 46 -26 30 -27 31 -33 11 -4 -18 -9 -20 -24
-11 -15 7 -21 6 -25 -6 -13 -32 -22 -1 -29 97 -7 92 -12 111 -46 181 -68 134
-123 314 -134 437 -3 36 -8 85 -11 110 -3 31 -2 41 5 31 8 -12 11 -10 16 11 4
15 4 32 0 38 -4 6 1 18 11 26 17 12 17 13 2 8 -10 -3 -18 -1 -18 5 0 6 5 11
11 11 14 0 3 78 -18 131 -14 35 -13 39 8 63 22 25 45 26 35 0z m1898 -619 c10
-26 -51 -49 -119 -46 -162 9 -271 3 -351 -17 -71 -19 -115 -22 -387 -26 -265
-3 -310 -2 -323 11 -23 23 -11 38 27 35 129 -12 660 1 709 18 19 6 117 14 217
19 100 4 185 10 189 14 12 12 32 8 38 -8z m361 -41 c-3 -20 -15 -46 -26 -57
-11 -13 -19 -35 -19 -57 0 -20 -7 -51 -16 -68 -17 -36 -42 -57 -30 -26 4 10 3
15 -1 10 -4 -4 -6 -35 -5 -67 3 -47 0 -65 -14 -80 -20 -23 -44 -25 -44 -4 0 9
-6 12 -15 9 -12 -5 -15 3 -15 40 0 39 5 52 30 76 17 16 30 34 30 39 0 17 22
24 31 10 12 -20 18 -9 24 44 6 52 10 63 43 125 27 52 36 54 27 6z m252 -459
c91 -35 139 -70 180 -132 52 -78 79 -185 92 -364 7 -85 16 -183 21 -219 5 -36
11 -117 12 -180 l3 -115 -28 2 c-27 2 -28 0 -22 -29 5 -22 4 -29 -5 -26 -25 8
-37 86 -44 284 -9 262 -31 506 -51 547 -16 34 -58 87 -69 87 -9 0 -7 -38 2
-44 14 -8 7 -38 -17 -76 -22 -36 -24 -81 -6 -180 4 -25 -1 -55 -20 -105 -14
-38 -28 -79 -29 -90 -6 -32 -55 -117 -90 -155 -44 -47 -113 -162 -177 -294
-47 -95 -53 -115 -51 -163 2 -51 0 -56 -45 -105 -61 -66 -95 -97 -107 -98 -6
0 4 15 20 33 59 63 114 172 114 225 0 26 46 140 73 182 77 116 124 212 153
307 22 75 20 217 -6 417 -22 164 -26 296 -9 296 5 0 7 5 4 10 -11 17 32 11
102 -15z m-2379 -237 c6 -190 35 -303 153 -588 33 -80 66 -158 73 -175 45
-100 86 -183 103 -204 27 -37 125 -131 136 -131 30 0 215 -236 217 -277 0 -13
-65 -37 -79 -29 -5 4 -12 2 -16 -4 -4 -7 -15 -5 -31 3 -19 10 -32 34 -53 95
-32 95 -50 118 -105 133 -71 19 -152 72 -124 81 11 4 11 9 0 29 -7 13 -14 38
-16 56 -3 18 -14 42 -26 55 -56 60 -214 500 -246 688 -3 14 -10 40 -15 58 -8
25 -8 37 0 45 6 6 11 29 11 51 0 53 -14 37 -35 -39 -47 -168 -48 -177 -35
-402 13 -228 15 -206 -38 -393 -8 -27 -36 -35 -38 -10 -3 44 -5 50 -18 50 -11
0 -10 13 6 68 29 101 40 216 42 442 3 223 15 299 61 390 22 43 57 90 68 90 2
0 4 -37 5 -82z m3398 -784 c54 -26 146 -67 204 -91 222 -94 722 -324 717 -330
-6 -5 -145 54 -192 81 -53 31 -197 91 -320 132 -137 47 -194 70 -311 131 -87
44 -216 123 -202 123 3 0 50 -21 104 -46z m-4022 -148 c7 -121 7 -125 -18
-164 -32 -52 -37 -54 -65 -33 -21 16 -23 25 -22 101 1 89 21 150 60 184 11 11
21 25 21 33 0 8 4 12 9 9 4 -3 11 -61 15 -130z m3294 59 c85 -16 237 -81 162
-69 -19 3 -45 7 -57 10 -13 2 -23 1 -23 -4 0 -4 -21 -7 -47 -6 -45 2 -46 2
-21 -9 14 -7 34 -19 45 -28 10 -9 45 -26 78 -37 107 -37 130 -47 137 -57 16
-22 6 -27 -39 -21 -129 18 -147 18 -201 -3 -29 -12 -67 -21 -85 -21 -63 0 -64
-4 -77 -230 -6 -96 -12 -195 -15 -220 -30 -293 -36 -473 -40 -1160 -2 -399 -6
-741 -9 -760 -3 -19 -8 -66 -11 -104 -5 -70 -14 -101 -16 -55 0 22 -1 23 -9 4
l-9 -20 0 20 c-1 17 -3 17 -11 5 -6 -10 -10 -11 -10 -2 0 6 -7 12 -15 12 -8 0
-15 -7 -15 -15 0 -8 -4 -15 -9 -15 -5 0 -7 268 -5 627 5 843 10 1039 29 1228
9 88 16 205 16 260 0 55 6 156 14 225 27 232 25 239 -45 240 -51 0 -82 11 -76
25 8 21 -6 26 -20 7 -7 -9 -13 -12 -13 -7 1 23 99 132 138 154 50 28 127 50
156 45 11 -2 57 -10 103 -19z m814 -92 c15 -13 18 -32 18 -108 0 -65 8 -126
27 -206 l26 -114 1 -830 c1 -840 -10 -1421 -26 -1431 -5 -3 -15 -1 -21 5 -7 5
-23 8 -36 4 l-22 -6 6 234 c8 327 -12 1950 -26 2084 -17 167 -17 348 0 368 17
21 30 21 53 0z m-3421 -15 c19 -6 41 -18 50 -27 15 -15 15 -19 -6 -56 -12 -22
-20 -47 -18 -55 1 -8 -4 -1 -12 15 -8 17 -14 35 -15 40 0 13 -80 58 -88 50
-12 -12 32 -76 92 -133 34 -32 66 -61 72 -63 5 -2 27 -32 48 -66 20 -35 41
-63 45 -63 4 0 14 -12 22 -26 7 -15 38 -42 67 -60 29 -19 50 -38 47 -43 -3 -5
2 -16 10 -24 8 -9 15 -24 15 -34 0 -10 14 -56 31 -103 58 -164 90 -290 128
-505 16 -90 18 -172 17 -795 -1 -396 -5 -696 -10 -697 -5 -1 -13 -7 -17 -15
-6 -8 -9 -9 -9 -1 0 7 -13 10 -34 8 l-34 -3 -7 92 c-3 50 -7 384 -8 741 -2
575 -4 658 -19 715 -10 36 -35 164 -57 285 -43 238 -59 287 -140 409 -61 94
-269 302 -313 314 -52 14 -69 0 -63 -52 7 -54 -5 -65 -77 -73 -44 -4 -63 -1
-97 17 -34 17 -49 20 -65 12 -19 -10 -106 -24 -106 -17 0 4 134 102 158 114
40 21 241 89 287 98 17 2 32 7 34 9 8 7 37 4 72 -8z m-701 -329 c0 -6 9 -9 20
-6 19 5 20 0 21 -76 5 -305 10 -380 35 -562 26 -193 27 -218 30 -705 2 -278 4
-607 5 -733 2 -167 -1 -231 -10 -240 -9 -9 -13 -7 -17 10 -6 20 -8 21 -28 8
-24 -16 -38 -10 -51 20 -5 11 -10 321 -10 690 -1 433 -6 705 -13 770 -23 199
-41 403 -47 545 -4 80 -8 169 -10 198 -4 50 -2 54 28 72 37 23 47 25 47 9z
m2620 -148 c0 -61 -1 -61 -148 -65 -114 -3 -150 -16 -173 -58 -6 -11 -13 -17
-16 -14 -3 3 4 20 15 38 10 18 23 46 27 63 9 38 23 55 46 55 26 0 24 -28 -3
-58 l-23 -24 30 13 c17 8 32 16 35 20 8 9 44 22 54 20 5 -1 16 5 26 14 16 15
19 14 38 -10 17 -21 24 -24 40 -16 11 6 25 24 32 41 7 16 14 30 16 30 2 0 4
-22 4 -49z m-2168 22 c44 -16 68 -43 68 -78 0 -11 -9 -11 -57 1 -32 7 -72 13
-90 14 -33 0 -52 15 -31 23 7 3 -6 6 -29 6 -43 1 -72 21 -31 21 13 0 32 7 42
15 26 20 70 19 128 -2z m2526 -7 c-10 -7 -15 -16 -11 -20 4 -4 -3 -9 -15 -13
-12 -3 -20 -9 -17 -13 10 -16 -17 -22 -140 -27 -136 -6 -137 -5 -110 47 l15
29 123 4 c67 1 133 4 147 5 23 1 23 0 8 -12z m-3417 -288 c-25 -20 -83 -25
-78 -7 1 6 -4 14 -10 16 -7 3 -13 0 -13 -5 0 -6 -10 -8 -22 -4 -17 4 -20 2
-15 -11 5 -14 0 -17 -24 -17 -16 0 -46 -7 -66 -15 -41 -17 -78 -21 -53 -6 8 6
17 8 20 6 3 -1 12 4 20 13 13 14 12 15 -2 9 -12 -4 -16 -1 -15 13 1 12 13 24
32 31 98 37 105 39 130 29 16 -6 25 -6 25 0 0 6 7 10 16 10 8 0 12 -4 9 -10
-3 -5 -2 -10 4 -10 6 0 18 15 28 33 l17 32 10 -44 c9 -40 7 -46 -13 -63z
m1799 -7 c55 -20 106 -30 144 -30 33 -1 89 -6 125 -12 104 -17 242 -91 218
-116 -2 -2 -24 5 -48 16 -51 22 -278 46 -294 30 -5 -6 -5 -9 2 -9 17 0 68 -49
60 -57 -4 -3 -7 -2 -7 4 0 6 -57 39 -127 73 -141 69 -178 92 -193 119 -12 24
7 21 120 -18z m661 -1107 c-1 -530 -7 -730 -23 -784 -6 -19 -13 -29 -15 -22
-3 6 -9 10 -13 7 -5 -3 -17 6 -26 21 -17 25 -18 25 -31 8 -12 -17 -13 -16 -13
7 -5 397 8 1161 20 1173 4 4 18 13 31 20 22 11 33 25 44 60 4 14 9 16 16 9 8
-8 11 -167 10 -499z"/>
<path d="M2776 8340 c39 -37 48 -50 35 -54 -9 -2 7 -2 34 1 42 4 55 1 78 -19
15 -12 55 -28 89 -35 100 -20 145 -63 67 -63 -36 0 -39 -2 -25 -15 8 -8 20
-15 26 -15 6 0 17 -15 25 -32 8 -18 14 -30 15 -26 0 4 19 -11 43 -33 23 -22
97 -79 165 -127 68 -47 129 -93 135 -101 13 -17 21 -23 97 -69 24 -15 57 -39
72 -53 15 -15 68 -44 117 -65 97 -41 115 -55 35 -28 -27 9 -71 23 -99 30 -126
32 -174 48 -225 73 -30 15 -93 42 -140 60 -169 65 -195 79 -111 60 46 -10 65
-5 41 12 -18 12 36 1 62 -12 9 -5 22 -9 29 -9 22 0 -10 27 -65 55 -66 34 -112
71 -94 78 8 3 2 9 -14 16 -16 6 -28 14 -28 19 0 12 -78 49 -120 56 -28 6 -31
5 -17 -4 20 -13 23 -30 3 -30 -7 0 -51 17 -97 39 -67 31 -79 40 -63 45 12 3
51 -1 88 -9 46 -11 72 -13 84 -6 14 8 10 10 -18 11 -19 0 -55 11 -80 24 -25
13 -71 27 -103 31 -59 8 -79 25 -28 25 17 0 33 4 36 10 9 14 -40 23 -93 17
-26 -4 -78 0 -115 7 -68 13 -96 5 -66 -18 8 -6 14 -17 14 -25 0 -14 34 -39 89
-63 l29 -14 -41 -27 c-24 -16 -49 -24 -59 -21 -17 5 -17 5 0 -9 13 -11 16 -23
12 -51 -9 -52 1 -59 43 -32 44 27 97 43 86 25 -5 -9 0 -10 17 -5 13 4 47 13
74 21 28 7 62 18 78 24 22 9 34 7 62 -9 20 -11 41 -20 49 -20 7 0 13 -7 13
-15 0 -11 -12 -15 -44 -15 -54 0 -49 -15 9 -24 37 -6 40 -9 24 -18 -21 -12
-92 7 -99 26 -3 7 -24 18 -47 26 -34 11 -49 11 -83 1 -23 -7 -54 -15 -69 -18
-15 -3 -25 -9 -22 -15 6 -10 47 -4 100 14 24 8 37 7 62 -6 18 -9 33 -21 33
-26 6 -45 6 -45 -61 -48 -61 -3 -108 -20 -65 -24 11 0 25 -2 30 -3 6 -2 21 -3
35 -4 20 -2 -75 -38 -147 -57 -7 -2 -13 -14 -13 -27 0 -22 7 -26 63 -37 34 -7
82 -24 106 -37 31 -18 52 -23 73 -19 20 4 27 2 22 -6 -4 -6 -3 -8 3 -5 13 8
100 -23 188 -66 166 -83 285 -128 328 -125 42 4 42 4 12 12 -16 5 -42 18 -56
30 -15 12 -42 29 -60 40 -64 36 -11 27 78 -13 114 -51 265 -78 205 -36 -10 8
-50 30 -88 49 -88 45 -73 45 36 1 85 -35 134 -43 145 -25 3 5 20 7 37 3 27 -5
30 -4 24 12 -6 16 -2 17 33 12 27 -3 44 -1 51 9 10 11 21 9 68 -12 l57 -25
-40 41 c-22 23 -55 51 -73 62 -26 16 -31 23 -20 30 10 8 9 9 -4 4 -10 -3 -20
-1 -23 4 -4 6 -13 10 -21 10 -9 0 -25 10 -36 23 -13 15 -18 17 -15 6 4 -13 -8
-10 -56 14 -70 34 -137 77 -121 77 5 0 15 -5 22 -12 7 -7 12 -9 12 -5 0 4 18
-4 40 -18 39 -25 90 -48 90 -41 0 2 -43 39 -95 82 -52 43 -91 82 -86 87 4 4
39 -10 77 -31 39 -21 79 -42 89 -45 16 -7 16 -5 4 10 -7 10 -24 30 -38 46 -29
31 -27 32 24 11 20 -8 42 -13 48 -11 11 3 -23 30 -128 99 -27 18 -74 57 -105
87 -114 111 -273 190 -545 271 -33 9 -100 32 -148 49 -49 17 -94 31 -100 31
-7 0 11 -23 39 -50z"/>
<path d="M4638 8223 c14 -28 15 -122 2 -139 -7 -7 -21 -14 -32 -14 -16 0 -19
-5 -14 -22 3 -13 6 -26 6 -30 0 -4 7 -5 15 -2 10 4 18 -3 25 -21 14 -37 12
-65 -4 -65 -9 0 -12 -7 -9 -19 3 -13 -2 -21 -16 -26 -25 -8 -27 -18 -6 -35 18
-15 95 -20 95 -6 0 6 5 3 11 -7 6 -10 8 -25 5 -32 -3 -10 6 -16 31 -21 43 -8
50 1 59 74 10 84 -2 160 -36 215 -17 27 -30 53 -30 58 0 6 -4 8 -9 5 -5 -4
-19 6 -30 21 -13 18 -21 23 -21 13 0 -8 -9 4 -20 28 -10 23 -22 42 -25 42 -3
0 -2 -8 3 -17z"/>
<path d="M2667 7656 l-28 -12 38 -12 c21 -7 54 -26 73 -42 l35 -31 -40 17
c-71 30 -79 32 -120 38 l-39 5 34 -21 c19 -11 60 -46 90 -78 54 -56 115 -100
140 -100 7 0 2 9 -11 20 -14 13 3 7 43 -15 36 -19 79 -34 95 -34 l28 1 -26 7
c-27 6 -129 89 -129 105 0 5 -8 15 -17 23 -22 17 1 7 37 -17 30 -20 90 -42 90
-32 0 3 -12 16 -27 29 l-28 22 55 -14 c30 -8 57 -15 59 -15 2 0 -14 16 -35 35
-48 43 -207 124 -254 130 -19 2 -48 -1 -63 -9z"/>
<path d="M1566 6333 c-29 -29 31 -220 94 -300 11 -14 20 -33 20 -41 0 -12 -4
-12 -21 4 -22 19 -22 19 -14 -6 11 -38 33 -90 38 -90 3 0 11 8 18 17 8 9 9 14
3 10 -7 -4 -14 3 -16 18 -4 18 -2 22 6 16 8 -7 11 7 10 47 -2 93 -2 96 -18 83
-11 -9 -17 -3 -31 31 -33 79 -65 173 -65 190 0 19 -14 31 -24 21z"/>
<path d="M3765 6015 c-180 -28 -275 -63 -300 -109 -35 -65 -1 -242 67 -355 58
-96 50 -94 335 -95 136 -1 280 2 318 6 43 5 60 4 45 -1 -21 -8 -22 -9 -5 -10
43 -2 156 29 197 53 24 15 50 29 59 32 32 11 75 221 67 326 -6 78 -29 108
-102 130 -122 37 -510 51 -681 23z m407 -19 c74 -17 128 -53 128 -84 0 -15 -7
-26 -20 -29 -11 -3 -20 -9 -20 -14 0 -5 -4 -9 -10 -9 -5 0 -10 6 -10 13 0 14
-49 63 -90 90 -13 10 -39 17 -57 17 l-32 0 6 -55 c6 -53 5 -56 -31 -90 -59
-55 -136 -43 -172 27 -19 36 -17 128 3 121 7 -3 13 0 13 5 0 22 209 28 292 8z"/>
<path d="M2355 6014 c-16 -2 -88 -12 -160 -20 -144 -18 -196 -38 -216 -86 -25
-61 10 -324 50 -374 40 -50 193 -79 461 -89 135 -5 198 -3 277 9 56 9 114 13
130 10 20 -4 38 1 63 18 30 20 41 40 73 127 21 58 41 133 44 168 3 35 10 66
14 69 5 3 9 0 9 -7 0 -22 18 4 22 30 1 13 -3 26 -9 28 -8 3 -13 -4 -13 -16 0
-12 -4 -21 -10 -21 -5 0 -10 8 -10 19 0 24 -42 68 -77 82 -93 36 -212 51 -413
54 -113 2 -218 1 -235 -1z m302 -37 c11 -12 3 -98 -12 -127 -8 -15 -25 -34
-39 -44 -26 -16 -92 -22 -112 -8 -19 12 -54 76 -54 99 0 69 -41 70 -139 3 -46
-32 -83 -50 -102 -50 -33 0 -33 0 -18 34 14 30 91 70 174 90 62 15 287 17 302
3z"/>
</g>
</svg>
