<?xml version="1.0" standalone="no"?>
<!DOCTYPE svg PUBLIC "-//W3C//DTD SVG 20010904//EN"
 "http://www.w3.org/TR/2001/REC-SVG-20010904/DTD/svg10.dtd">
<svg version="1.0" xmlns="http://www.w3.org/2000/svg"
 width="250.000000pt" height="250.000000pt" viewBox="0 0 250.000000 250.000000"
 preserveAspectRatio="xMidYMid meet">
<metadata>
Created by potrace 1.15, written by Peter Selinger 2001-2017
</metadata>
<g transform="translate(0.000000,250.000000) scale(0.100000,-0.100000)"
fill="#000000" stroke="none">
<path d="M20 1240 l0 -1240 84 0 c94 0 96 2 96 73 0 52 -7 47 235 170 79 40
86 42 55 16 -19 -16 -44 -29 -56 -29 -13 0 -37 -12 -54 -26 -17 -15 -57 -37
-88 -50 l-57 -23 -3 -65 -3 -66 149 0 149 0 -5 55 c-4 45 -1 56 12 61 24 9 26
4 28 -60 l2 -56 172 0 c157 0 172 1 170 17 0 10 -3 20 -6 23 -3 3 -18 23 -35
45 -71 96 -135 141 -135 96 0 -24 -32 -36 -58 -22 -11 6 -21 9 -23 7 -2 -2
-17 -6 -34 -10 -29 -7 -29 -6 9 20 36 25 141 64 169 64 23 0 38 -17 31 -34 -6
-16 -9 -15 -30 5 -13 12 -24 18 -24 12 0 -6 12 -22 27 -35 16 -13 41 -41 58
-63 16 -22 37 -46 46 -53 10 -6 20 -26 24 -42 l7 -30 176 0 c153 0 178 2 196
17 20 17 20 17 7 0 -13 -16 -3 -17 168 -17 99 0 181 3 182 8 1 4 2 25 4 47 1
22 4 62 6 89 3 48 2 50 -26 57 -15 5 -33 6 -39 3 -6 -3 8 13 31 35 46 45 75
51 148 29 l40 -12 -30 -6 -30 -7 37 -16 c21 -10 42 -17 48 -17 5 0 10 -5 10
-11 0 -6 -9 -8 -21 -4 -11 4 -42 4 -70 0 -56 -8 -55 -6 -63 -123 l-5 -72 171
0 170 0 -7 126 c-6 104 -5 126 6 122 14 -4 20 -36 35 -180 l7 -67 168 0 c93 0
169 4 169 7 0 4 -7 32 -15 62 -19 72 -19 78 4 55 11 -11 26 -42 34 -69 36
-127 37 -95 37 1183 l0 1241 -1230 0 -1230 0 0 -1240z m1068 1145 c23 -22 25
-27 12 -36 -14 -9 -39 -8 -105 6 l-30 6 25 -15 c24 -15 23 -16 -26 -11 -45 4
-57 0 -104 -30 -30 -19 -48 -35 -40 -35 7 0 23 9 35 20 12 11 35 20 51 20 43
0 83 -5 79 -9 -8 -8 21 -28 35 -24 11 3 11 2 3 -4 -7 -5 -9 -13 -5 -18 8 -12
71 -35 94 -35 9 0 21 -6 27 -14 10 -12 8 -13 -11 -9 -21 5 -20 2 10 -25 35
-34 177 -142 185 -142 11 0 0 30 -19 51 -18 21 -18 21 21 -2 33 -19 38 -20 25
-5 -14 18 -13 18 10 12 17 -5 10 3 -21 26 -26 18 -63 46 -84 62 -20 16 -71 42
-113 57 -42 15 -70 28 -62 29 8 1 2 8 -15 15 -16 8 -23 15 -15 15 8 1 -1 8
-20 15 -34 13 -32 14 49 14 l84 1 44 -47 c23 -26 43 -53 43 -59 0 -6 11 -16
25 -22 14 -7 25 -18 23 -26 -2 -8 1 -15 7 -15 19 -2 9 41 -15 61 -14 11 -18
16 -10 12 8 -4 35 -23 60 -43 25 -19 38 -27 30 -17 -14 18 -13 18 17 12 32 -7
73 9 73 28 0 6 -15 26 -32 45 l-33 35 54 -38 c29 -21 50 -33 46 -27 -3 6 1 14
10 17 10 4 27 -4 46 -22 25 -24 29 -25 29 -9 0 10 -10 30 -22 44 l-23 26 26
-22 c14 -13 34 -23 45 -23 26 -1 70 -35 55 -44 -6 -4 -11 -3 -11 2 0 5 -11 14
-25 20 -23 11 -24 10 -12 -15 7 -16 13 -20 16 -12 2 8 12 -4 22 -26 14 -31 18
-35 18 -17 1 12 6 31 13 42 10 16 8 24 -12 52 l-24 33 27 -18 c15 -10 32 -15
36 -12 12 7 60 -51 65 -78 10 -48 13 -77 8 -72 -3 3 -11 -4 -17 -15 -10 -18
-11 -15 -11 27 1 35 -5 57 -23 83 l-25 35 24 -20 23 -20 -12 22 c-19 36 -31
36 -38 1 -4 -18 -6 -37 -5 -41 1 -5 -2 -6 -8 -2 -5 3 -10 1 -10 -4 0 -6 5 -11
10 -11 13 0 13 -37 0 -45 -17 -11 0 -26 22 -19 11 3 18 2 16 -2 -3 -5 3 -17
13 -26 17 -16 19 -16 31 1 11 16 13 10 11 -38 -1 -31 -2 -57 -3 -59 0 -2 -5 0
-12 4 -6 4 -34 9 -62 11 -27 3 -62 13 -77 24 -15 10 -31 19 -35 19 -5 0 2 -7
14 -16 12 -8 22 -19 22 -24 0 -10 -40 -1 -58 13 -8 6 -39 12 -70 13 -31 2 -52
1 -47 0 6 -2 29 -9 53 -16 24 -8 38 -16 31 -20 -14 -9 74 -40 112 -40 21 0 27
4 23 15 -5 11 1 15 25 15 29 0 31 -3 31 -34 0 -19 5 -38 10 -41 7 -4 9 2 4 19
-9 36 7 32 33 -7 39 -57 46 -88 44 -200 -1 -94 -6 -119 -33 -195 -18 -48 -31
-90 -30 -94 5 -17 -28 6 -34 24 -3 11 -12 17 -19 15 -9 -4 -14 13 -18 61 -4
37 -12 110 -18 162 -6 52 -10 106 -10 119 1 22 -2 23 -42 19 -27 -3 -56 1 -82
13 l-40 18 35 1 35 2 -45 12 c-38 11 -41 14 -20 18 21 3 19 6 -20 17 -25 7
-60 19 -78 27 -38 16 -82 18 -82 4 0 -5 6 -10 13 -11 6 0 3 -4 -8 -9 -18 -8
-18 -9 -2 -9 10 -1 20 -8 23 -16 4 -8 11 -12 16 -9 6 4 5 -3 -2 -15 -6 -12
-21 -26 -33 -30 -26 -10 -88 -23 -69 -15 15 7 16 34 0 34 -6 0 -4 6 6 13 15
11 10 14 -44 25 -54 11 -65 11 -86 -2 -27 -18 -38 -20 -29 -6 8 13 -1 13 -27
-1 -16 -9 -19 -8 -12 3 6 11 5 11 -9 -1 -9 -7 -17 -9 -17 -3 0 15 -35 21 -55
10 -14 -8 -15 -12 -4 -19 17 -11 -64 -10 -101 0 l-25 7 29 8 c26 6 27 8 12 25
-18 20 -22 41 -4 23 7 -7 18 -12 26 -12 7 0 20 -7 29 -15 18 -18 40 -14 35 6
-11 43 -10 48 5 42 33 -13 1 17 -40 38 -45 23 -114 74 -134 99 -9 10 -8 2 2
-27 8 -24 12 -43 8 -43 -3 0 5 -9 18 -21 24 -20 24 -20 1 -9 -12 6 -27 8 -32
5 -6 -4 -7 1 -3 12 3 10 3 15 -2 11 -4 -4 -14 -3 -21 3 -19 15 -31 4 -38 -35
-4 -22 -14 -37 -26 -41 -23 -7 -17 -23 14 -35 15 -6 16 -9 5 -9 -9 -1 -28 8
-42 19 -35 28 -38 26 -31 -22 9 -56 27 -91 62 -120 l29 -23 -23 -52 c-29 -64
-54 -170 -54 -225 0 -35 -2 -40 -20 -35 -17 4 -20 0 -20 -26 0 -17 6 -38 13
-46 8 -11 10 -35 6 -76 l-6 -60 -1 51 c-2 41 -7 55 -30 77 -15 15 -33 27 -39
27 -5 0 -10 12 -11 28 0 15 -8 52 -17 82 -13 40 -18 90 -18 185 -1 184 4 225
23 225 12 0 16 10 16 35 0 21 -5 35 -12 35 -7 0 -10 -8 -7 -20 3 -12 0 -20 -7
-20 -7 0 -10 7 -6 15 3 8 2 15 -3 15 -13 0 10 58 42 107 15 24 27 45 27 49 0
3 16 24 35 47 19 22 35 47 35 54 0 7 4 13 8 13 4 0 7 -16 7 -35 -2 -46 18 -64
33 -30 10 21 9 27 -3 31 -24 10 -18 43 9 50 14 3 27 12 30 21 3 8 11 11 17 7
7 -4 9 -3 6 2 -18 30 109 105 177 105 10 0 16 3 13 6 -12 12 20 32 51 33 22 0
42 -9 60 -25z m407 -905 c3 -5 30 -11 58 -11 29 -1 41 -4 27 -6 -80 -13 -169
-36 -165 -43 2 -4 -18 -10 -45 -13 -78 -9 -104 -26 -108 -67 -4 -53 35 -123
73 -131 l30 -7 -27 -1 c-36 -1 -62 26 -92 93 -13 29 -29 57 -35 60 -24 15 -50
-6 -71 -59 -12 -30 -29 -60 -38 -67 -14 -12 -14 -10 -2 12 18 34 40 120 30
120 -4 0 -11 7 -14 16 -5 14 1 15 48 10 33 -5 56 -3 60 3 4 6 13 8 20 5 20 -8
120 30 124 47 8 33 29 43 99 48 12 0 25 -3 28 -9z m169 -402 c-8 -35 -8 -37 2
-106 3 -23 1 -64 -6 -90 -15 -61 -50 -142 -61 -142 -14 0 -11 44 4 59 10 11
10 14 0 18 -7 3 -13 10 -13 18 0 7 -7 18 -15 25 -12 10 -12 14 -1 25 7 8 16
37 20 65 4 28 18 76 31 106 27 61 51 74 39 22z m-914 -23 c0 -13 6 -25 14 -28
16 -6 90 -146 82 -155 -3 -3 -6 1 -6 8 0 7 -3 10 -6 7 -4 -4 -1 -13 6 -22 17
-20 5 -32 -15 -15 -17 14 -21 0 -4 -17 6 -6 19 -9 28 -6 14 6 14 4 -1 -14 -25
-28 -22 -44 11 -76 16 -15 35 -40 42 -56 7 -15 28 -38 46 -51 18 -12 33 -26
33 -30 0 -5 22 -22 48 -38 49 -30 164 -62 223 -62 54 0 150 49 210 108 32 30
62 53 69 50 11 -3 -125 -141 -171 -171 -37 -24 -118 -47 -164 -46 -39 1 -103
16 -76 18 10 1 11 4 2 15 -13 16 -96 47 -105 40 -3 -2 -4 -1 -1 2 2 4 -30 33
-73 65 -42 32 -89 70 -104 83 -16 13 -28 20 -28 15 0 -5 -4 -9 -10 -9 -5 0
-10 12 -10 28 0 15 -10 47 -21 72 -43 93 -61 188 -45 236 3 12 2 34 -4 49 -5
14 -7 31 -4 36 9 16 34 -11 34 -36z m937 -392 c39 -26 54 -76 67 -221 10 -112
9 -132 -2 -127 -10 4 -12 0 -8 -10 3 -9 2 -13 -4 -10 -6 3 -10 41 -10 83 -1
123 -16 222 -35 241 -17 15 -17 15 -11 -1 17 -47 18 -53 8 -39 -15 20 -21 1
-18 -59 2 -55 -7 -77 -55 -135 -25 -29 -79 -139 -79 -161 -1 -11 -12 -32 -27
-49 l-25 -30 21 36 c11 20 21 44 21 54 0 9 21 55 46 102 l47 85 -7 135 -7 135
26 -6 c15 -4 38 -14 52 -23z m-897 -146 c6 -26 31 -97 56 -157 41 -97 53 -117
115 -178 74 -73 86 -102 44 -102 -20 0 -28 8 -41 39 -11 28 -24 43 -45 50 -16
5 -32 18 -35 28 -3 10 -17 42 -30 70 -35 75 -84 229 -85 266 l-1 32 -9 -30
c-5 -16 -10 -75 -9 -129 0 -121 -7 -166 -27 -166 -12 0 -14 7 -8 27 3 16 10
87 15 159 6 96 13 140 26 165 l19 34 3 -30 c1 -16 7 -51 12 -78z"/>
<path d="M930 2200 c0 -5 12 -16 27 -23 25 -14 26 -15 6 -21 -15 -5 -19 -13
-16 -26 6 -24 12 -25 41 -5 20 14 21 14 16 0 -5 -11 0 -15 19 -15 35 0 44 -18
12 -26 -13 -3 -23 -10 -20 -14 3 -4 -6 -11 -20 -14 -29 -7 -34 -26 -7 -26 20
0 122 -37 205 -74 62 -28 100 -35 54 -10 -38 21 -27 30 12 10 33 -17 65 -21
57 -7 -3 5 10 8 29 6 19 -2 35 1 35 6 0 5 16 7 35 4 19 -2 35 -3 35 -1 0 4
-109 86 -115 86 -9 0 3 -33 16 -41 25 -16 -8 -10 -62 11 -29 10 -57 16 -62 13
-6 -3 -7 -1 -3 5 3 6 -6 13 -24 17 -41 9 -47 23 -7 19 28 -3 30 -1 14 9 -11 7
-33 24 -50 40 -20 17 -40 26 -52 23 -11 -3 -31 2 -45 9 -22 13 -23 14 -5 15
14 1 9 6 -15 14 -24 9 -30 15 -20 19 10 4 8 6 -7 6 -12 1 -25 -3 -28 -9 -3 -5
-11 -10 -16 -10 -6 0 -7 5 -4 10 3 6 -3 10 -14 10 -12 0 -21 -4 -21 -10z"/>
<path d="M1518 2188 c7 -9 10 -22 7 -30 -3 -8 3 -23 15 -33 24 -22 27 -43 3
-24 -15 13 -15 12 -2 -9 8 -12 16 -17 17 -12 3 7 8 7 18 -1 8 -6 12 -15 9 -19
-3 -5 0 -12 6 -16 8 -4 9 -3 5 4 -4 7 -3 12 3 12 5 0 13 -9 16 -20 9 -27 45
-60 64 -59 12 0 10 3 -4 9 -11 5 -14 9 -7 9 7 1 24 -6 38 -16 l25 -16 -17 39
c-23 51 -118 150 -169 176 -28 15 -36 16 -27 6z"/>
</g>
</svg>
