<?xml version="1.0" standalone="no"?>
<!DOCTYPE svg PUBLIC "-//W3C//DTD SVG 20010904//EN"
 "http://www.w3.org/TR/2001/REC-SVG-20010904/DTD/svg10.dtd">
<svg version="1.0" xmlns="http://www.w3.org/2000/svg"
 width="250.000000pt" height="250.000000pt" viewBox="0 0 250.000000 250.000000"
 preserveAspectRatio="xMidYMid meet">
<metadata>
Created by potrace 1.15, written by Peter Selinger 2001-2017
</metadata>
<g transform="translate(0.000000,250.000000) scale(0.100000,-0.100000)"
fill="#fff" stroke="none">
<path d="M1067 2446 c-55 -6 -95 -14 -91 -18 4 -5 -2 -8 -14 -8 -12 0 -22 -4
-22 -10 0 -5 -10 -10 -22 -10 -26 0 -113 -53 -149 -91 -14 -14 -42 -32 -62
-40 -35 -12 -42 -21 -37 -44 1 -5 -2 -7 -6 -3 -4 5 -15 -6 -25 -22 -11 -17
-24 -30 -29 -30 -6 0 -8 -4 -5 -10 3 -5 1 -10 -6 -10 -7 0 -10 -3 -6 -6 3 -4
-1 -13 -9 -21 -8 -9 -13 -22 -10 -29 3 -7 -4 -16 -14 -19 -23 -7 -40 -61 -32
-100 4 -21 2 -26 -8 -20 -10 6 -12 1 -8 -18 3 -16 1 -25 -6 -24 -6 1 -12 -10
-14 -25 -2 -20 1 -28 12 -28 9 0 16 -9 16 -21 0 -11 -4 -17 -10 -14 -5 3 -8 0
-5 -7 2 -7 6 -47 9 -88 9 -123 25 -232 36 -246 10 -11 15 -32 19 -84 1 -13 2
-13 11 0 6 9 10 10 10 3 0 -6 9 -15 20 -18 16 -5 20 -15 20 -53 0 -76 17 -85
22 -11 2 35 0 70 -5 76 -5 7 -11 29 -14 50 -5 34 -4 36 12 23 14 -12 18 -12
26 1 5 8 9 28 9 45 0 16 11 52 24 80 13 27 32 73 41 103 16 49 75 130 75 102
0 -6 7 -11 16 -11 13 0 14 3 4 15 -10 12 -8 14 8 10 11 -2 30 2 43 8 13 7 39
11 57 10 21 -1 30 3 26 10 -3 7 1 4 9 -5 8 -10 25 -18 38 -18 17 0 20 3 11 9
-11 7 -11 9 0 14 25 9 16 -23 -14 -53 -34 -35 -38 -56 -6 -39 19 10 20 9 14
-7 -13 -33 -15 -54 -5 -54 5 0 9 6 9 14 0 23 67 75 107 82 21 4 43 10 48 14 6
5 60 10 121 12 60 3 116 8 124 13 9 5 11 4 6 -3 -4 -7 -1 -12 9 -12 9 0 14 -4
10 -9 -5 -8 22 -15 108 -25 10 -1 23 -9 28 -17 5 -8 9 -10 9 -5 0 5 7 3 15 -4
8 -7 13 -16 10 -20 -3 -5 -1 -11 5 -15 5 -3 10 -15 10 -25 0 -11 9 -37 20 -58
11 -21 23 -66 26 -100 6 -52 4 -62 -9 -62 -8 0 -18 7 -21 16 -3 8 -2 12 4 9
17 -11 11 11 -8 28 -10 10 -28 17 -40 17 -11 0 -24 5 -27 10 -8 12 -62 13 -69
1 -3 -5 -37 -12 -76 -16 -46 -5 -68 -11 -63 -18 4 -6 0 -8 -10 -4 -11 4 -17 1
-17 -9 0 -8 -4 -12 -10 -9 -5 3 -10 -2 -11 -12 0 -10 -3 -13 -5 -7 -6 14 -54
5 -72 -13 -7 -7 -20 -13 -28 -13 -8 0 -13 -4 -10 -9 3 -5 -6 -8 -20 -8 -13 0
-22 2 -19 5 8 8 -104 54 -115 47 -6 -4 -10 -1 -10 5 0 6 -4 9 -9 6 -5 -4 -11
-1 -13 4 -4 13 -45 21 -133 26 -139 7 -159 2 -175 -42 -5 -13 -17 -24 -27 -25
-16 0 -16 -2 2 -10 17 -8 15 -8 -7 -4 -25 5 -28 3 -28 -24 0 -16 7 -34 15 -41
8 -7 15 -19 15 -26 0 -39 56 -104 88 -104 29 0 27 6 -3 12 -11 1 -25 8 -30 13
-13 13 -35 85 -35 116 0 21 1 22 13 5 21 -28 82 -24 112 8 30 32 41 33 49 2 3
-13 14 -26 24 -28 29 -8 62 9 62 32 0 26 11 25 46 -2 15 -13 25 -17 20 -10 -4
7 -2 12 5 12 10 0 10 3 1 12 -20 20 -13 31 16 23 40 -10 72 -33 72 -53 -1 -37
-45 -125 -65 -129 -11 -2 -47 -8 -80 -13 l-60 -9 65 5 c36 2 71 5 79 6 28 3
59 40 71 84 23 80 77 83 106 8 21 -56 50 -94 71 -94 13 0 12 3 -4 18 -24 21
-43 73 -43 118 0 37 18 54 34 33 6 -8 19 -13 30 -11 13 3 16 0 10 -9 -4 -7 7
-3 25 10 18 13 33 22 34 20 19 -36 28 -44 51 -47 20 -3 28 2 35 20 5 13 7 26
4 31 -2 4 3 7 11 7 21 0 48 -30 42 -46 -4 -11 5 -14 38 -14 58 0 76 8 76 32 0
10 -4 17 -10 13 -12 -8 -60 5 -60 16 0 14 44 11 65 -4 15 -12 17 -23 12 -77
-4 -51 -10 -67 -29 -82 -13 -9 -18 -18 -11 -18 18 0 50 47 57 85 4 19 11 35
15 35 4 0 12 10 18 22 7 16 9 -5 8 -75 0 -54 2 -91 6 -84 7 12 14 121 9 142
-7 28 1 57 14 52 9 -4 16 4 21 21 3 14 16 47 27 72 33 72 38 98 38 205 -1 109
-3 135 -12 150 -4 6 -5 25 -4 43 1 17 -1 32 -6 32 -4 0 -8 13 -8 29 0 16 -6
32 -12 34 -9 4 -9 6 -2 6 17 1 8 125 -11 178 -9 23 -23 44 -31 47 -9 3 -12 1
-9 -4 3 -6 4 -10 0 -10 -3 0 -10 11 -15 25 -6 15 -15 23 -24 19 -8 -3 -17 0
-21 6 -5 8 -11 7 -22 -2 -14 -11 -15 -10 -9 8 4 14 1 26 -11 35 -16 13 -17 12
-4 -4 10 -12 11 -21 4 -28 -8 -8 -13 -7 -17 0 -4 6 -18 11 -32 11 -13 0 -24 3
-24 8 0 12 -68 54 -79 48 -5 -4 -12 -2 -16 4 -3 5 -14 10 -23 10 -9 0 -39 11
-67 25 -27 13 -60 25 -71 25 -12 0 -39 6 -60 14 -25 8 -47 10 -62 5 -15 -6
-21 -5 -17 1 3 6 3 9 -2 9 -4 -1 -52 -7 -106 -13z"/>
<path d="M1616 708 c-4 -24 -8 -52 -9 -63 0 -11 -6 -23 -11 -27 -8 -5 -8 -8
-1 -8 17 0 16 -118 -1 -168 -16 -49 -40 -96 -62 -124 -8 -10 -11 -25 -7 -39 5
-15 4 -19 -4 -15 -6 4 -10 3 -9 -2 2 -6 -12 -24 -31 -41 -19 -17 -31 -34 -26
-38 4 -5 10 -2 12 5 3 6 9 10 14 6 5 -3 9 0 9 6 0 6 11 15 25 22 13 6 22 14
20 19 -3 4 -1 10 5 14 5 3 10 16 10 27 0 26 40 118 52 118 4 0 8 6 8 13 0 7
14 26 30 42 17 16 30 32 30 37 0 14 43 58 57 58 10 0 13 -24 13 -99 0 -87 2
-100 18 -104 9 -2 4 -3 -11 -1 -39 5 -89 -18 -110 -50 -16 -23 -16 -28 -3 -41
8 -8 22 -15 30 -15 11 0 16 -9 16 -30 0 -27 -3 -30 -34 -30 -23 0 -36 -6 -41
-17 -6 -16 -8 -15 -16 5 -12 31 -27 28 -23 -6 2 -15 1 -21 -2 -15 -4 10 -9 10
-20 -1 -28 -28 -15 -36 56 -36 l70 0 0 -55 c0 -47 3 -55 19 -55 20 0 31 26 31
78 0 28 3 32 28 33 15 1 20 3 11 6 -21 5 -32 44 -16 56 9 7 9 10 0 14 -7 2
-13 14 -13 24 0 12 4 17 11 13 6 -3 22 0 36 7 20 11 26 11 33 -1 6 -8 10 -10
10 -4 0 6 17 19 38 29 33 16 35 19 16 24 -13 4 -20 13 -19 23 2 11 -6 19 -27
23 -39 9 -45 27 -57 177 -14 184 -33 221 -125 244 -21 5 -24 1 -30 -38z"/>
<path d="M739 643 c-7 -21 -13 -80 -15 -131 -3 -105 -12 -169 -25 -178 -5 -3
-9 -14 -9 -24 0 -13 -21 -31 -64 -57 -55 -31 -62 -38 -49 -48 11 -9 13 -14 5
-19 -23 -14 -12 -25 18 -20 35 8 64 -2 54 -17 -4 -8 -9 -7 -15 2 -6 10 -9 11
-9 2 0 -7 -7 -13 -16 -13 -11 0 -15 -6 -11 -20 3 -10 0 -21 -7 -24 -6 -2 -3
-5 6 -5 9 -1 23 8 31 20 8 11 16 16 18 11 2 -5 25 -11 51 -14 26 -3 46 -3 44
1 -3 3 13 5 35 3 24 -3 48 2 63 11 23 15 23 14 44 -36 12 -29 22 -60 22 -70 0
-11 8 -17 21 -17 22 0 23 7 3 80 l-7 25 24 -20 24 -20 -15 20 c-8 11 -23 28
-33 37 -10 9 -18 19 -17 23 1 4 -2 10 -6 13 -4 4 -4 1 0 -5 4 -7 3 -13 -3 -13
-12 0 -58 55 -66 80 -3 11 -11 20 -16 20 -14 0 -11 28 4 33 9 3 9 7 -1 19 -17
21 -69 28 -83 11 -21 -24 -30 -13 -12 14 15 22 17 46 15 142 -3 103 -1 114 12
96 8 -11 19 -41 26 -65 7 -25 15 -49 19 -55 4 -5 18 -36 31 -67 12 -32 27 -58
32 -58 6 0 8 -9 5 -20 -7 -26 11 -46 53 -59 26 -8 36 -17 37 -33 1 -13 7 -24
12 -26 5 -2 7 -10 5 -17 -4 -9 1 -13 15 -12 14 1 17 5 10 13 -7 8 -6 13 3 16
10 4 9 8 -2 20 -9 8 -33 41 -55 74 -22 32 -43 61 -47 62 -5 2 -8 9 -8 15 0 6
-14 42 -31 81 -66 151 -78 182 -84 219 -3 20 -10 37 -15 37 -5 0 -14 -17 -21
-37z"/>
<path d="M2052 210 c3 -66 1 -123 -3 -126 -5 -3 -6 2 -3 10 4 11 0 16 -15 16
-12 0 -21 -6 -21 -14 0 -8 -12 -17 -27 -19 -16 -2 -4 -5 25 -6 l52 -1 0 -35
c0 -31 3 -35 25 -35 24 0 25 2 25 71 0 39 -5 79 -11 90 -5 11 -13 51 -16 89
-4 48 -10 71 -21 75 -13 5 -14 -11 -10 -115z"/>
</g>
</svg>
